<?xml version="1.0" standalone="no"?>
<!DOCTYPE svg PUBLIC "-//W3C//DTD SVG 1.1//EN" "http://www.w3.org/Graphics/SVG/1.1/DTD/svg11.dtd" >
<svg xmlns="http://www.w3.org/2000/svg">
<metadata>
This is a custom SVG font generated by IcoMoon.
<iconset grid="20"></iconset>
</metadata>
<defs>
<font id="icomoon" horiz-adv-x="640" >
<font-face units-per-em="640" ascent="608" descent="-32" />
<missing-glyph horiz-adv-x="640" />
<glyph class="hidden" unicode="&#xf000;" d="M0,608L 640 -32L0 -32 z" horiz-adv-x="0" />
<glyph unicode="&#x5c;" d="M 447.968,435.2L 448,140.8L 192,288 z"  />
<glyph unicode="&#x7a;" d="M 467.2,415.968L 172.8,416L 320,160 z"  />
<glyph unicode="&#x78;" d="M 172.8,160L 467.2,160L 319.968,416 z"  />
<glyph unicode="&#x63;" d="M 192.032,435.2L 192,140.8L 448,288 z"  />
<glyph unicode="&#x31;" d="M 534.336,304.416L 260.384,474.144c-19.968,13.088-36.288,3.424-36.288-21.44l0-329.472 c0-24.864, 16.352-34.496, 36.288-21.408l 273.984,169.728
		c0,0, 9.728,6.848, 9.728,16.448C 544.064,297.568, 534.336,304.416, 534.336,304.416z"  />
<glyph unicode="&#x32;" d="M 320,512c-123.712,0-224-100.288-224-224c0-123.712, 100.288-224, 224-224c 123.68,0, 224,100.288, 224,224C 544,411.712, 443.68,512, 320,512z"  />
<glyph unicode="&#x33;" d="M 432,512c-31.808,0-57.6-9.792-57.6-41.6l0-364.8 c0-31.808, 25.792-41.6, 57.6-41.6s 57.6,9.792, 57.6,41.6L 489.6,470.4 C 489.6,502.208, 463.808,512, 432,512zM 208,512C 176.192,512, 150.4,502.208, 150.4,470.4l0-364.8 c0-31.808, 25.792-41.6, 57.6-41.6s 57.6,9.792, 57.6,41.6L 265.6,470.4 C 265.6,502.208, 239.808,512, 208,512z"  />
<glyph unicode="&#x30;" d="M 464,480l-288,0 C 144.192,480, 128,470.208, 128,438.4l0-300.8 C 128,105.792, 144.192,96, 176,96l 288,0 c 31.808,0, 48,9.792, 48,41.6L 512,438.4 C 512,470.208, 495.808,480, 464,480
		z"  />
<glyph unicode="&#x34;" d="M 586.272,303.328l-238.784,158.4C 329.152,473.952, 314.112,464.96, 314.112,441.76l0-307.488 c0-23.232, 15.040-32.224, 33.376-19.968l 238.784,158.368
		c0,0, 8.928,6.4, 8.928,15.328S 586.272,303.328, 586.272,303.328z M 295.872,303.328L 65.344,461.76C 47.040,473.952, 32.032,464.96, 32.032,441.76l0-307.488 
		c0-23.232, 15.008-32.224, 33.344-19.968l 230.528,158.368c0,0, 8.928,6.4, 8.928,15.328S 295.872,303.328, 295.872,303.328z"  />
<glyph unicode="&#x35;" d="M 44.768,288c0-8.928, 8.928-15.328, 8.928-15.328l 238.816-158.368c 18.304-12.256, 33.344-3.264, 33.344,19.968L 325.856,441.76 
		c0,23.232-15.040,32.192-33.344,20l-238.816-158.4C 53.728,303.328, 44.768,296.928, 44.768,288z M 335.2,288c0-8.928, 8.928-15.328, 8.928-15.328
		l 230.496-158.368c 18.336-12.256, 33.344-3.264, 33.344,19.968L 607.968,441.76 c0,23.232-15.008,32.192-33.344,20l-230.496-158.4
		C 344.128,303.328, 335.2,296.928, 335.2,288z"  />
<glyph unicode="&#x36;" d="M 239.52,288c0-8.256, 8.384-14.144, 8.384-14.144l 232.8-146.208C 497.952,116.352, 512,124.672, 512,146.048L 512,429.952 
		c0,21.408-14.048,29.728-31.296,18.432l-232.8-146.24C 247.904,302.112, 239.52,296.256, 239.52,288z M 128,436.576l0-297.152 c0-28.416, 19.584-37.12, 48-37.12
		S 224,111.008, 224,139.392L 224,436.576 c0,28.448-19.584,37.152-48,37.152S 128,464.992, 128,436.576z"  />
<glyph unicode="&#x37;" d="M 392.096,302.144l-232.8,146.24C 142.080,459.648, 128,451.36, 128,429.92l0-283.872 c0-21.44, 14.080-29.696, 31.296-18.432l 232.8,146.208
		c0,0, 8.416,5.92, 8.416,14.144S 392.096,302.144, 392.096,302.144z M 464,473.728c-28.416,0-48-8.736-48-37.152l0-297.152 
		c0-28.448, 19.584-37.184, 48-37.184s 48,8.736, 48,37.184L 512,436.576 C 512,464.992, 492.416,473.728, 464,473.728z"  />
<glyph unicode="&#x73;" d="M 485.504,544L 128,544 C 92.8,544, 64,515.2, 64,480l0-384 c0-35.2, 28.8-64, 64-64l 384,0 c 35.2,0, 64,28.8, 64,64L 576,443.936 L 485.504,544z M 448,352c0-17.6-14.4-32-32-32L 224,320 
	C 206.4,320, 192,334.4, 192,352L 192,512 l 256,0 L 448,352 z M 416,480l-64,0 l0-128 l 64,0 L 416,480 z"  />
<glyph unicode="&#x6f;" d="M 610.24,384L 29.76,384 C 0.32,384-1.184,369.664, 0.448,352.128l 26.4-288.256C 28.448,46.336, 32.608,32, 62.016,32l 516,0 
		c 30.016,0, 33.568,14.336, 35.168,31.872l 26.4,288.256C 641.152,369.664, 639.712,384, 610.24,384z M 588.928,454.4C 585.408,468.48, 567.968,480, 550.24,480l-218.048,0 
		C 314.432,480, 289.664,490.144, 277.088,502.592L 258.016,521.408C 245.472,533.856, 220.672,544, 202.944,544L 98.752,544 C 81.024,544, 64.896,529.696, 62.944,512.192L 53.6,428.8
		l 541.792,0 L 588.928,454.4z"  />
<glyph unicode="&#x4f;" d="M 542.976,448c0,32-31.84,32-31.84,32L 128.864,480 c0,0-31.84,0-31.84-32l0-32 l 445.952,0 L 542.976,448 z M 447.392,544L 192.576,544 c0,0-31.84,0-31.84-32l 318.528,0 
		C 479.264,544, 447.392,544, 447.392,544z M 606.656,416c-18.848,18.944-18.848,18.944-18.848,18.944L 587.808,384 L 52.16,384 L 52.16,434.944 c0,0,0,0-18.848-18.944
		S 0.96,391.968, 8.576,351.968C 16.096,312.128, 52.672,93.568, 58.080,64c 5.984-32.448, 38.944-32, 38.944-32l 445.952,0 c0,0, 32.96-0.448, 38.944,32
		c 5.44,29.568, 41.984,248.128, 49.536,287.968C 639.040,391.968, 625.536,397.056, 606.656,416z M 447.392,243.2c0,0,0-32-31.872-32L 224.448,211.2 
		c-31.84,0-31.84,32-31.84,32l0,64 l 44.608,0 L 237.216,256 l 165.536,0 L 402.752,307.2 l 44.672,0 L 447.424,243.2 z"  />
<glyph unicode="&#x22;" d="M 160,192L 128,192 c-17.664,0-32-14.304-32-32s 14.336-32, 32-32l 32,0 c 17.664,0, 32,14.304, 32,32S 177.664,192, 160,192z M 160,320L 128,320 c-17.664,0-32-14.336-32-32s 14.336-32, 32-32l 32,0 
	c 17.664,0, 32,14.336, 32,32S 177.664,320, 160,320z M 160,448L 128,448 C 110.336,448, 96,433.664, 96,416s 14.336-32, 32-32l 32,0 c 17.664,0, 32,14.336, 32,32S 177.664,448, 160,448z M 288,384l 224,0 
	c 17.696,0, 32,14.336, 32,32s-14.304,32-32,32L 288,448 C 270.336,448, 256,433.664, 256,416S 270.336,384, 288,384z M 512,320L 288,320 c-17.664,0-32-14.336-32-32s 14.336-32, 32-32l 224,0 
	c 17.696,0, 32,14.336, 32,32S 529.696,320, 512,320z M 512,192L 288,192 c-17.664,0-32-14.304-32-32s 14.336-32, 32-32l 224,0 c 17.696,0, 32,14.304, 32,32S 529.696,192, 512,192z"  />
<glyph unicode="&#x77;" d="M 624.384,32.576L 339.328,532.768C 335.392,539.68, 328,543.936, 320,543.936c-8,0-15.36-4.256-19.328-11.168L 15.648,32.576
		c-3.872-6.784-3.808-15.072, 0.16-21.792s 11.264-10.848, 19.136-10.848l 570.080,0 c 7.808,0, 15.136,4.128, 19.136,10.848
		C 628.128,17.504, 628.192,25.792, 624.384,32.576z M 355.2,63.936L 284.8,63.936 l0,64 l 70.4,0 L 355.2,63.936 z M 355.2,175.936L 284.8,175.936 l0,192 l 70.4,0 L 355.2,175.936 z"  />
<glyph unicode="&#x68;" d="M 316.096,582.368c-162.592-2.176-292.64-135.744-290.464-298.336c 2.176-162.496, 135.744-292.576, 298.336-290.4
	c 162.528,2.176, 292.608,135.744, 290.4,298.336C 612.224,454.496, 478.656,584.544, 316.096,582.368z M 315.232,108.8L 313.6,108.8 c-25.024,0.736-42.688,19.2-41.984,43.872
	c 0.704,24.224, 18.784,41.856, 43.008,41.856l 1.472-0.032c 25.728-0.768, 43.2-19.040, 42.432-44.416C 357.824,125.792, 340,108.8, 315.232,108.8z
	 M 420.544,317.824c-5.92-8.352-18.848-18.752-35.168-31.456l-17.984-12.416c-9.856-7.68-15.808-14.88-18.016-21.952
	c-1.792-5.632-2.624-7.072-2.784-18.432l-0.032-2.912L 277.984,230.656 l 0.192,5.824c 0.832,23.872, 1.44,37.888, 11.328,49.504
	c 15.52,18.208, 49.76,40.256, 51.2,41.184c 4.896,3.712, 9.024,7.904, 12.128,12.384c 7.2,9.92, 10.368,17.76, 10.368,25.408
	c0,10.656-3.168,20.512-9.408,29.28c-6.016,8.48-17.44,12.768-33.952,12.768c-16.384,0-27.584-5.216-34.304-15.872
	C 278.592,380.16, 275.136,368.672, 275.136,356.896l0-2.944 l-70.72,0 l 0.128,3.072c 1.824,43.328, 17.28,74.496, 45.952,92.704C 268.48,461.344, 290.88,467.2, 316.992,467.2
	c 34.208,0, 63.136-8.32, 85.856-24.704c 23.040-16.608, 34.72-41.504, 34.72-73.952C 437.568,350.368, 431.84,333.312, 420.544,317.824z"  />
<glyph unicode="&#x69;" d="M 316.064,582.368c-162.56-2.176-292.608-135.744-290.432-298.336c 2.176-162.496, 135.744-292.576, 298.304-290.4
		c 162.56,2.176, 292.608,135.744, 290.432,298.336C 612.224,454.496, 478.624,584.544, 316.064,582.368z M 348.704,484.256c 29.92,0, 38.752-17.344, 38.752-37.216
		c0-24.8-19.872-47.744-53.76-47.744c-28.352,0-41.824,14.272-41.024,37.824C 292.672,456.992, 309.312,484.256, 348.704,484.256z M 271.968,104
		c-20.448,0-35.424,12.416-21.12,67.008l 23.456,96.768c 4.064,15.52, 4.736,21.728,0,21.728c-6.112,0-32.672-10.72-48.384-21.28l-10.208,16.736
		c 49.76,41.536, 106.976,65.92, 131.488,65.92c 20.448,0, 23.84-24.192, 13.632-61.408l-26.88-101.76c-4.736-17.984-2.688-24.192, 2.048-24.192
		c 6.112,0, 26.24,7.424, 46.016,22.976l 11.552-15.52C 345.216,122.624, 292.448,104, 271.968,104z"  />
<glyph unicode="&#x71;" d="M 320,556.8c-148.48,0-268.8-120.384-268.8-268.8c0-148.48, 120.352-268.8, 268.8-268.8c 148.448,0, 268.8,120.352, 268.8,268.8C 588.8,436.448, 468.448,556.8, 320,556.8z
		 M 375.328,288l 97.952-97.952l-55.328-55.328L 320,232.672l-97.952-97.952l-55.296,55.328L 264.672,288l-97.92,97.92l 55.296,55.328L 320,343.328l 97.952,97.92
		l 55.328-55.296L 375.328,288z"  />
<glyph unicode="&#x64;" d="M 265.44,64c-13.92,0-27.104,6.496-35.552,17.696L 115.52,232.672c-14.88,19.648-11.008,47.616, 8.64,62.496
			c 19.68,14.912, 47.616,11.008, 62.496-8.64l 75.232-99.328l 189.184,303.712c 13.024,20.896, 40.544,27.296, 61.472,14.272
			c 20.896-12.992, 27.296-40.544, 14.24-61.44L 303.328,85.024c-7.776-12.512-21.184-20.352-35.872-20.992C 266.784,64, 266.112,64, 265.44,64z"  />
<glyph unicode="&#x44;" d="M 459.168,187.136L 370.912,288l 88.256,100.864c 15.008,15.008, 15.008,39.328,0,54.304c-15.008,14.976-39.328,14.976-54.304,0L 320,346.176
		l-84.832,96.96c-15.008,15.008-39.328,15.008-54.304,0c-14.976-15.008-14.976-39.328,0-54.304L 269.088,288l-88.256-100.864
		c-14.976-15.008-14.976-39.264,0-54.24c 15.008-15.008, 39.328-15.008, 54.304,0L 320,229.824l 84.832-96.928c 15.008-15.008, 39.328-15.008, 54.304,0
		S 474.144,172.128, 459.168,187.136z"  />
<glyph unicode="&#x62;" d="M 64.064,518.432l0-75.776 c 226.752,0, 410.56-183.84, 410.56-410.592l 75.808,0 C 550.432,300.672, 332.672,518.432, 64.064,518.432z M 64.064,366.848l0-75.808 
		c 143.040,0, 259.008-115.936, 259.008-258.976l 75.744,0 C 398.816,216.928, 248.96,366.848, 64.064,366.848z M 136.704,177.344c-40.096,0-72.64-32.544-72.64-72.672
		s 32.544-72.64, 72.64-72.64c 40.128,0, 72.672,32.512, 72.672,72.64S 176.832,177.344, 136.704,177.344z"  />
<glyph unicode="&#x42;" d="M 320,160c-35.008,0-63.328-28.672-63.328-64S 284.992,32, 320,32c 34.976,0, 63.328,28.672, 63.328,64S 354.976,160, 320,160z M 185.6,231.744l 44.8-45.248
		c 49.472,49.984, 129.696,49.984, 179.2,0l 44.8,45.248C 380.16,306.752, 259.808,306.752, 185.6,231.744z M 96,322.272l 44.768-45.248
		c 98.976,99.968, 259.424,99.968, 358.4,0L 544,322.272C 420.288,447.232, 219.712,447.232, 96,322.272z M 6.4,412.768L 51.2,367.52c 148.48,149.952, 389.152,149.952, 537.6,0
		l 44.8,45.248C 460.416,587.744, 179.584,587.744, 6.4,412.768z"  />
<glyph unicode="&#x6e;" d="M 229.92-5.44c 25.248-16.32, 54.496-27.36, 90.080-26.496
	c 35.584-0.864, 64.8,10.176, 90.048,26.496L 410.048,60.8 L 229.92,60.8 L 229.92-5.44 z M 406.272,99.232c0,139.392, 148.192,184, 137.088,322.848
	C 536.384,509.696, 477.024,608, 320,608S 103.616,509.696, 96.64,422.080c-11.104-138.88, 137.056-183.456, 137.056-322.848L 406.272,99.232 z M 164.416,417.024
	C 171.072,500.192, 227.648,542.368, 320,542.368c 92.352,0, 148.928-42.176, 155.552-125.344c 3.616-45.536-22.56-75.904-57.92-125.632
	c-26.016-36.672-56.8-79.968-71.2-136.352L 293.536,155.040 c-14.4,56.384-45.152,99.648-71.232,136.352C 186.976,341.152, 160.8,371.488, 164.416,417.024z"  />
<glyph unicode="&#x6b;" d="M 566.080,456.768c-16.064,95.296-103.040,158.944-194.208,142.112c-91.2-16.8-168.128-90.112-152.064-185.408C 223.296,392.96, 232.864,360.832, 244.224,337.792
	l-165.6-247.136c-6.112-9.12-9.568-25.568-7.744-36.512l 10.656-63.072c 1.856-10.944, 11.936-18.304, 22.4-16.384l 48.512,8.928
	c 10.496,1.952, 23.776,11.168, 29.568,20.512l 65.504,105.92l 0.576,0.672l 44.32,8.192l 76.448,124.096c 25.152-4.448, 61.184-2.944, 82.496,0.992
	C 542.592,260.832, 582.176,361.472, 566.080,456.768z M 485.312,407.936c-25.088-37.408-50.656-11.040-86.496,15.2
	c-35.808,26.208-68.32,42.336-43.232,79.744c 25.088,37.44, 74.432,46.56, 110.272,20.32C 501.696,496.992, 510.4,445.344, 485.312,407.936z"  />
<glyph unicode="&#x76;" d="M 544,576l-70.4,0 C 455.936,576, 448,561.664, 448,544l0-544 l 128,0 L 576,544 C 576,561.664, 561.696,576, 544,576z M 352,384L 281.6,384 C 263.936,384, 256,369.664, 256,352l0-352 l 128,0 L 384,352 
	C 384,369.664, 369.696,384, 352,384z M 160,192L 89.6,192 C 71.936,192, 64,177.696, 64,160l0-160 l 128,0 l0,160 C 192,177.696, 177.664,192, 160,192z"  />
<glyph unicode="&#x47;" d="M 623.616,531.616l-148.128-241.312c-5.504-8.928-16.256-10.4-23.936-3.232l-71.616,67.072c-7.68,7.168-18.688,5.888-24.512-2.88
	l-100.576-151.68c-5.792-8.736-16.896-10.112-24.672-3.072L 183.36,239.264c-7.776,7.072-19.488,6.144-26.048-2.016l-147.488-183.936
	C 3.232,45.088, 6.464,38.4, 16.928,38.4l 616.672,0 L 633.6,528.8 C 633.632,539.328, 629.12,540.608, 623.616,531.616z"  />
<glyph unicode="&#x70;" d="M 505.6,352L 448,352 L 448,428.8 C 448,521.504, 405.28,576, 320,576C 234.688,576, 192,521.504, 192,428.8L 192,416 l 64,0 L 256,441.6 C 256,487.84, 281.504,512, 320,512c 38.464,0, 64-24.16, 64-70.4L 384,352 L 128,352 
		C 110.304,352, 96,331.296, 96,313.6L 96,64 c0-17.6, 13.728-36.416, 30.464-41.824l 38.272-12.384C 181.504,4.416, 209.6,0, 227.2,0l 185.6,0 
		c 17.632,0, 45.728,4.416, 62.464,9.824l 38.272,12.384C 530.272,27.584, 544,46.4, 544,64L 544,313.6 C 544,331.296, 523.296,352, 505.6,352z"  />
<glyph unicode="&#x50;" d="M 505.632,351.936L 448,351.936 l0,44.8 c0,92.704-42.688,147.2-128,147.2c-85.28,0-128-54.496-128-147.2l0-44.8 L 128,351.936 c-17.664,0-32-20.704-32-38.4l0-249.6 
		c0-17.6, 13.728-36.448, 30.464-41.824l 38.272-12.384c 16.736-5.408, 44.832-9.824, 62.464-9.824l 185.6,0 c 17.6,0, 45.728,4.416, 62.464,9.824l 38.272,12.384
		C 530.304,27.488, 544,46.336, 544,63.936l0,249.6 C 544,331.232, 523.296,351.936, 505.632,351.936z M 256,409.536c0,46.24, 25.536,70.4, 64,70.4
		c 38.496,0, 64-24.16, 64-70.4l0-57.6 L 256,351.936 L 256,409.536 z"  />
<glyph unicode="&#x57;" d="M 598.080,212.928l-55.264,49.28c-16,14.272-16,37.568,0,51.84l 55.264,49.248c 16,14.272, 11.712,27.552-9.504,29.568l-73.248,6.944
	c-21.216,2.016-32.64,20.256-25.344,40.544l 38.88,108.224c 7.296,20.288-1.632,27.68-19.808,16.416l-86.432-53.44
	c-18.176-11.264-41.664-5.12-52.192,13.664l-31.328,55.872c-10.496,18.784-27.904,18.88-38.624,0.224L 271.392,530.688
	C 260.672,512.032, 236.032,504.064, 216.64,512.992l-51.2,23.52C 146.016,545.408, 131.104,535.104, 132.256,513.536L 135.040,461.856
	c 1.152-21.536-14.752-43.744-35.328-49.28L 50.272,399.296C 29.696,393.728, 25.92,377.536, 41.92,363.264l 55.264-49.248c 16-14.24, 16-37.568,0-51.808
	L 41.92,212.992c-16-14.304-11.776-28.064, 9.376-30.624l 67.040-8.128c 21.152-2.624, 32.96-21.504, 26.208-41.952l-34.4-104.256
	c-6.752-20.512, 2.88-28.512, 21.376-17.76l 78.816,45.568c 18.528,10.752, 43.392,4.8, 55.296-13.056l 32.736-49.184
	c 11.872-17.952, 29.76-16.928, 39.648,2.176l 28.768,55.424c 9.952,19.136, 33.696,26.944, 52.768,17.376l 55.488-27.744
	c 19.136-9.568, 33.824,0.256, 32.672,21.824l-2.784,51.68c-1.152,21.568, 14.752,43.744, 35.328,49.312l 49.408,13.248
	C 610.304,182.496, 614.080,198.688, 598.080,212.928z M 352,153.76L 288,153.76 l0,67.2 l 64,0 L 352,153.76 z M 352,256.128L 288,256.128 l0,166.4 l 64,0 L 352,256.128 z"  />
<glyph unicode="&#x61;" d="M 396.064,145.664C 316.352,174.4, 290.88,198.656, 290.88,250.592c0,31.168, 24.352,20.992, 35.040,78.080c 4.448,23.68, 25.952,0.384, 30.016,54.432
		c0,21.536-11.712,26.912-11.712,26.912s 5.984,31.904, 8.288,56.416C 355.392,497.024, 334.656,576, 224,576S 92.608,497.024, 95.488,466.432
		c 2.336-24.544, 8.32-56.416, 8.32-56.416S 92.064,404.672, 92.064,383.104c 4.128-54.048, 25.632-30.752, 30.016-54.432
		c 10.72-57.088, 35.072-46.912, 35.072-78.080c0-51.936-25.504-76.192-105.216-104.928c-9.6-3.424-32.48-8.8-51.936-17.216L0,0 l 512,0 
		c0,0,0,47.328,0,67.36S 476.064,116.832, 396.064,145.664z M 544,320L 544,416 l-64,0 l0-96 l-96,0 l0-64 l 96,0 l0-96 l 64,0 l0,96 l 96,0 L 640,320 L 544,320 z"  />
<glyph unicode="&#x75;" d="M 474.24,145.664c-78.88,28.736-104.096,52.992-104.096,104.928c0,31.168, 24.096,20.992, 34.656,78.080c 4.384,23.68, 25.664,0.384, 29.76,54.432
		c0,21.536-11.616,26.912-11.616,26.912s 5.92,31.904, 8.224,56.416C 433.984,497.024, 413.504,576, 304,576C 194.528,576, 173.984,497.024, 176.864,466.432
		C 179.168,441.92, 185.088,410.016, 185.088,410.016S 173.44,404.672, 173.44,383.104c 4.064-54.048, 25.344-30.752, 29.728-54.432
		c 10.592-57.088, 34.688-46.912, 34.688-78.080c0-51.936-25.216-76.192-104.096-104.928c-79.168-28.8-130.56-58.208-130.56-78.272c0-20.032,0-67.36,0-67.36
		l 300.8,0 l 300.8,0 c0,0,0,47.328,0,67.36C 604.8,87.424, 553.376,116.832, 474.24,145.664z"  />
<glyph unicode="&#x55;" d="M 640,6.4c0,0-1.248,121.184-8.672,133.728c-11.040,18.72-36.672,31.552-84.288,51.456c-47.456,19.84-62.656,36.608-62.656,72.416
		c0,21.536, 14.496,14.496, 20.864,53.888c 2.624,16.352, 15.424,0.288, 17.888,37.568c0,14.88-6.976,18.592-6.976,18.592s 3.52,22.016, 4.928,38.944
		c 1.728,21.12-10.656,75.616-76.544,75.616s-78.208-54.528-76.512-75.616c 1.376-16.928, 4.896-38.944, 4.896-38.944s-6.976-3.712-6.976-18.592
		c 2.464-37.312, 15.264-21.248, 17.92-37.568c 6.336-39.392, 20.832-32.352, 20.832-53.888c0-24.352-7.040-39.904-26.464-53.568
		c 103.68-51.904, 117.6-62.496, 117.6-108.896L 495.84,6.4 L 640,6.4 z M 327.168,173.6c-63.328,26.432-83.52,48.768-83.52,96.544c0,28.672, 19.328,19.328, 27.808,71.872
		c 3.488,21.792, 20.608,0.352, 23.84,50.080c0,19.84-9.312,24.768-9.312,24.768s 4.736,29.344, 6.592,51.936C 294.88,496.896, 278.368,569.6, 190.528,569.6
		c-87.84,0-104.32-72.672-102.016-100.8c 1.856-22.592, 6.56-51.936, 6.56-51.936S 85.792,411.936, 85.792,392.096
		c 3.296-49.76, 20.352-28.32, 23.872-50.080c 8.48-52.544, 27.808-43.168, 27.808-71.872c0-47.776-20.256-70.112-83.52-96.544
		C 34.656,165.536,0,153.024,0,123.008L0,6.4 l 444.608,0 c0,0,0,68.96,0,87.392C 444.608,121.216, 390.624,147.040, 327.168,173.6z"  />
<glyph unicode="&#x79;" d="M 537.12,288c0,33.536, 20.64,60, 51.68,78.176c-5.632,18.688-12.992,36.64-22.112,53.504c-34.88-9.12-63.072,4.544-86.752,28.224
		c-23.744,23.712-31.008,51.936-21.888,86.752c-16.864,9.12-34.752,16.576-53.504,22.144C 386.368,525.728, 353.504,505.088, 320,505.088
		c-33.504,0-66.336,20.64-84.544,51.712C 216.704,551.232, 198.816,543.776, 181.952,534.688C 191.040,499.84, 183.808,471.616, 160.096,447.904
		C 136.384,424.224, 108.16,410.56, 73.344,419.648C 64.224,402.816, 56.8,384.864, 51.2,366.176C 82.272,348, 102.912,321.536, 102.912,288
		c0-33.504-20.64-66.368-51.712-84.576c 5.6-18.72, 13.024-36.64, 22.144-53.504c 34.848,9.12, 63.040,1.856, 86.752-21.856
		c 23.712-23.712, 30.944-51.904, 21.856-86.752c 16.864-9.12, 34.784-16.576, 53.504-22.144c 18.208,31.104, 51.040,51.712, 84.544,51.712
		c 33.504,0, 66.4-20.64, 84.576-51.712c 18.752,5.6, 36.64,13.024, 53.504,22.144c-9.12,34.848-1.888,63.040, 21.888,86.752
		c 23.68,23.68, 51.872,37.344, 86.752,28.256c 9.12,16.864, 16.512,34.784, 22.112,53.504C 557.76,228.032, 537.12,254.496, 537.12,288z M 320,171.104
		c-64.544,0-116.864,52.352-116.864,116.896S 255.456,404.896, 320,404.896c 64.576,0, 116.896-52.352, 116.896-116.896S 384.576,171.104, 320,171.104z"  />
<glyph unicode="&#x21;" d="M 591.552,458.24C 226.496,312.096, 374.368,705.44, 91.232,498.368L 32,477.12L 149.312,16l 64.608,0 L 156.48,241.856
		c 252.608,211.776, 150.336-230.752, 449.152,203.424C 612.576,455.36, 603.296,462.944, 591.552,458.24z"  />
<glyph unicode="&#x24;" d="M 480,192c-22.016,0-42.176-7.456-58.368-19.904l-167.008,100.192C 255.424,277.408, 256,282.656, 256,288c0,5.376-0.576,10.592-1.376,15.712
		l 167.008,100.192C 437.824,391.456, 457.984,384, 480,384c 52.992,0, 96,42.976, 96,96s-43.008,96-96,96s-96-42.976-96-96c0-5.344, 0.576-10.592, 1.408-15.712
		L 218.4,364.064C 202.208,376.544, 182.016,384, 160,384c-53.024,0-96-42.976-96-96c0-52.992, 42.976-96, 96-96c 22.016,0, 42.208,7.456, 58.4,19.904l 167.008-100.192
		C 384.576,106.592, 384,101.376, 384,96c0-52.992, 43.008-96, 96-96s 96,43.008, 96,96S 532.992,192, 480,192z"  />
<glyph unicode="&#x54;" d="M 411.715,139.715L 280,271.431L 280,448L 360,448L 360,304.569L 468.285,196.285 	zM 320,608C 143.269,608,0,464.731,0,288s 143.269-320, 320-320s 320,143.269, 320,320S 496.731,608, 320,608z M 320,48
		c-132.549,0-240,107.451-240,240c0,132.549, 107.451,240, 240,240c 132.549,0, 240-107.451, 240-240C 560,155.451, 452.549,48, 320,48z"  />
<glyph unicode="&#xa3;" d="M 640,359.844L 418.888,391.974L 320,592.338l-98.885-200.364L0,359.844l 160-155.961L 122.23-16.338L 320,87.636l 197.77-103.974
	l-37.771,220.22L 640,359.844z"  />
<glyph unicode="&#x66;" d="M 460,328 L 300,168 L 140,328 L 240,328 L 240,568 L 360,568 L 360,328 ZM 300,168L0,168 l0-160 l 600,0 L 600,168 L 300,168 z M 560,88l-80,0 l0,40 l 80,0 L 560,88 z"  />
<glyph unicode="&#x46;" d="M 300,168L0,168 l0-160 l 600,0 L 600,168 L 300,168 z M 560,88l-80,0 l0,40 l 80,0 L 560,88 zM 140,408 L 300,568 L 460,408 L 360,408 L 360,208 L 240,208 L 240,408 Z"  />
<glyph unicode="&#x6c;" d="M 579.883,608L 399.531,608 c-33.066,0-79.248-19.129-102.627-42.509L 17.535,286.123c-23.38-23.38-23.38-61.64,0-85.020
	l 215.569-215.566c 23.38-23.381, 61.639-23.381, 85.019,0l 279.369,279.368C 620.871,288.285, 640,334.468, 640,367.531L 640,547.883 
	C 640,580.948, 612.946,608, 579.883,608z M 500,408c-33.138,0-60,26.862-60,60s 26.862,60, 60,60s 60-26.862, 60-60S 533.138,408, 500,408z"  />
<glyph unicode="&#x4c;" d="M 620,568L 480,568 c-33,0-79.091-19.091-102.426-42.426L 142.426,290.426c-23.334-23.334-23.334-61.517,0-84.853l 175.147-175.146
	c 23.334-23.335, 61.517-23.335, 84.853,0l 235.146,235.146C 660.909,288.909, 680,335, 680,368L 680,508 C 680,541, 653,568, 620,568z M 540,368
	c-33.138,0-60,26.862-60,60s 26.862,60, 60,60s 60-26.862, 60-60S 573.138,368, 540,368zM 54.141,233.859 L 268.127,19.872 C 245.463,7.898 216.589,11.411 197.574,30.428 L 22.426,205.574 C -0.907,228.909 -0.907,267.092 22.426,290.426 L 257.574,525.574 C 280.909,548.909 327,568 360,568 L 54.141,262.143 C 46.364,254.364 46.364,241.638 54.141,233.859 Z" horiz-adv-x="680"  />
<glyph unicode="&#x74;" d="M 120-32L 520-32L 560,408L 80,408 	zM 400,528L 400,608 L 240,608 l0-80 L 40,528 l0-120 l 40,40l 480,0 l 40-40L 600,528 L 400,528 z M 360,528l-80,0 L 280,568 l 80,0 L 360,528 z"  />
<glyph unicode="&#x72;" d="M 280,528l0,10 c0,16.5-13.5,30-30,30l-100,0 c-16.5,0-30-13.5-30-30l0-10 L0,528 l0-80 l 120,0 l0-10 c0-16.5, 13.5-30, 30-30l 100,0 c 16.5,0, 30,13.5, 30,30l0,10 
		l 360,0 L 640,528 L 280,528 z M 160,448L 160,528 l 80,0 l0-80 L 160,448 zM 520,338c0,16.5-13.5,30-30,30l-100,0 c-16.5,0-30-13.5-30-30l0-10 L0,328 l0-80 l 360,0 l0-10 c0-16.5, 13.5-30, 30-30l 100,0 c 16.5,0, 30,13.5, 30,30l0,10 
		l 120,0 l0,80 l-120,0 L 520,338 z M 400,248l0,80 l 80,0 l0-80 L 400,248 zM 280,138c0,16.5-13.5,30-30,30l-100,0 c-16.5,0-30-13.5-30-30l0-10 L0,128 l0-80 l 120,0 l0-10 c0-16.5, 13.5-30, 30-30l 100,0 c 16.5,0, 30,13.5, 30,30l0,10 
		l 360,0 l0,80 L 280,128 L 280,138 z M 160,48l0,80 l 80,0 l0-80 L 160,48 z"  />
<glyph unicode="&#x38;" d="M 640,448L 480,608l0-120 c-81.732,0-144.22-19.505-191.031-59.63c-3.281-2.813-6.428-5.688-9.476-8.609
		c 17.2-23.852, 30.448-48.448, 42.358-71.931C 352.051,384.331, 395.634,408, 480,408l0-120 l0,0 l0-120 c-135.279,0-165.704,60.85-204.222,137.889
		c-21.441,42.882-43.612,87.225-84.745,122.481C 144.22,468.495, 81.732,488,0,488l0-80 c 135.279,0, 165.704-60.85, 204.222-137.889
		c 21.441-42.882, 43.612-87.225, 84.745-122.481C 335.78,107.505, 398.269,88, 480,88l0-120 l 160,160L 480,288L 640,448zM0,168l0-80 c 81.732,0, 144.219,19.505, 191.031,59.63c 3.281,2.811, 6.428,5.688, 9.476,8.61
		c-17.2,23.851-30.449,48.448-42.358,71.931C 127.95,191.67, 84.368,168,0,168z"  />
<glyph unicode="&#x39;" d="M 80,408L 480,408L 480,288L 640,448L 480,608L 480,488L0,488L0,248L 80,248 	zM 560,168L 160,168L 160,288L0,128L 160-32L 160,88L 640,88L 640,328L 560,328 	z"  />
<glyph unicode="&#x51;" d="M 600,288c0-154.64-125.36-280-280-280S 40,133.36, 40,288c0,68.16, 24.52,130.46, 65,179
	c 3.080,5.68, 7.36,10.62, 12.7,14.2c 0.9,0.94, 1.7,2, 2.62,2.92c 0.020-0.46, 0.22-0.9, 0.26-1.36C 126.36,486, 132.92,488, 140,488
	c 22.080,0, 40-17.92, 40-40c0-13.92-7.1-26.16-17.9-33.32C 162.8,414.16, 163.3,413.52, 164.020,413C 136.52,378.76, 120,335.34, 120,288
	c0-110.46, 89.54-200, 200-200s 200,89.54, 200,200c0,47.34-16.52,90.76-44.020,125c 0.72,0.52, 1.24,1.16, 1.92,1.68
	C 467.1,421.84, 460,434.080, 460,448c0,22.080, 17.92,40, 40,40c 7.080,0, 13.64-2, 19.42-5.24c 0.040,0.46, 0.24,0.9, 0.28,1.36
	c 0.9-0.92, 1.7-1.98, 2.62-2.92c 5.34-3.58, 9.6-8.52, 12.7-14.2C 575.46,418.46, 600,356.16, 600,288z M 340,248l-40,0 
	c-11.060,0-20,8.94-20,20L 280,548 c0,11.040, 8.94,20, 20,20l 40,0 c 11.060,0, 20-8.96, 20-20l0-280 C 360,256.94, 351.060,248, 340,248z"  />
<glyph unicode="&#x40;" d="M 561.475,568L 80,568 l0-80 L 21.475,488 C 10.475,488,0,480.17,0,469.17l0-40 C0,418.17, 10.475,408, 21.475,408L 80,408 l0-40 L 21.475,368 
	C 10.475,368,0,360.17,0,349.17l0-40 C0,298.17, 10.475,288, 21.475,288L 80,288 l0-40 L 21.475,248 C 10.475,248,0,240.17,0,229.17l0-40 
	C0,178.171, 10.475,168, 21.475,168L 80,168 l0-40 L 21.475,128 C 10.475,128,0,120.17,0,109.17l0-40 C0,58.17, 10.475,48, 21.475,48L 80,48 l0-80 l 481.475,0 
	c 22.093,0, 38.525,19.079, 38.525,41.17l0,520 C 600,551.261, 583.567,568, 561.475,568z M 200,8L 120,8 l0,40 l 21.475,0 c 11,0, 18.525,10.17, 18.525,21.17
	l0,40 c0,11.001-7.526,18.83-18.525,18.83L 120,128 l0,40 l 21.475,0 c 11,0, 18.525,10.17, 18.525,21.17l0,40 c0,11.001-7.526,18.83-18.525,18.83L 120,248 l0,40 
	l 21.475,0 c 11,0, 18.525,10.17, 18.525,21.17l0,40 c0,11.001-7.526,18.83-18.525,18.83L 120,368 l0,40 l 21.475,0 c 11,0, 18.525,10.17, 18.525,21.17l0,40 
	C 160,480.171, 152.475,488, 141.475,488L 120,488 L 120,528 l 80,0 L 200,8 z"  />
<glyph unicode="&#x26;" d="M 400,448L 400,608 L 120,608 L0,488l0-360 l 240,0 l0-160 l 400,0 L 640,448 L 400,448 z M 120,551.431L 120,488 L 56.569,488 L 120,551.431z M 40,168L 40,448 l 120,0 L 160,568 l 200,0 l0-120 l-120-120l0-160 L 40,168 z
	 M 360,391.431L 360,328 l-63.431,0 L 360,391.431z M 600,8L 280,8 L 280,288 l 120,0 l0,120 l 200,0 L 600,8 z"  />
<glyph unicode="&#x5e;" d="M0,368l 440,0 l0-80 L0,288 L0,368 z M0,488l 440,0 l0-80 L0,408 L0,488 z M0,248l 440,0 l0-80 L0,168 L0,248 z M0,128l 440,0 l0-80 L0,48 L0,128 z M 480,248l 80-120l 80,120L 480,248 z M 640,288
	l-80,120l-80-120L 640,288 z"  />
<glyph unicode="&#x67;" d="M 80,48 L 640,48 L 640-32 L 0-32 L 0,608 L 80,608 ZM 180,88 C 146.862,88 120,114.863 120,148 C 120,181.137 146.862,208 180,208 C 181.767,208 183.514,207.907 185.242,207.759 L 249.737,315.25 C 243.588,324.669 240,335.914 240,348.001 C 240,381.139 266.863,408.001 300,408.001 C 333.137,408.001 360,381.139 360,348.001 C 360,335.913 356.413,324.669 350.262,315.25 L 414.757,207.759 C 416.486,207.907 418.233,208 420,208 C 421.335,208 422.655,207.941 423.969,207.856 L 530.441,394.183 C 523.856,403.812 520,415.455 520,428.001 C 520,461.139 546.862,488.001 580,488.001 C 613.138,488.001 640,461.139 640,428.001 C 640,394.864 613.138,368.001 580,368.001 C 578.663,368.001 577.345,368.060 576.031,368.146 L 469.559,181.819 C 476.144,172.19 480,160.546 480,148 C 480,114.863 453.137,88 420,88 C 386.863,88 360,114.863 360,148 C 360,160.088 363.587,171.332 369.736,180.751 L 305.243,288.241 C 303.514,288.093 301.767,288 300,288 C 298.233,288 296.486,288.091 294.757,288.241 L 230.263,180.75 C 236.412,171.332 240,160.088 240,148 C 240,114.863 213.137,88 180,88 Z"  />
<glyph unicode="&#x25;" d="M 280,248L 280,528 C 125.36,528,0,402.64,0,248s 125.36-280, 280-280s 280,125.36, 280,280c0,45.021-10.642,87.553-29.522,125.239
		L 280,248zM 570.477,453.239C 524.507,544.999, 429.619,608, 320,608l0-280 L 570.477,453.239z"  />
<glyph unicode="&#x6d;" d="M 160,488L 80,568L 40,568L 40,528L 120,448 	zM 200,608L 240,608L 240,528L 200,528zM 360,408L 440,408L 440,368L 360,368zM 400,528L 400,568L 360,568L 280,488L 320,448 	zM0,408L 80,408L 80,368L0,368zM 200,248L 240,248L 240,168L 200,168zM 40,248L 40,208L 80,208L 160,288L 120,328 	zM 631.25,56.75L 233.676,454.324c-11.668,11.668-30.759,11.668-42.426,0L 153.676,416.75c-11.668-11.668-11.668-30.759,0-42.426L 551.25-23.25
		c 11.668-11.668, 30.759-11.668, 42.426,0L 631.25,14.324C 642.917,25.991, 642.917,45.082, 631.25,56.75z M 300,268l-120,120l 40,40l 120-120L 300,268z"  />
<glyph unicode="&#x52;" d="M 560,328l 10,0 c 16.5,0 30,13.5 30,30l0,100 c0,16.5-13.5,30-30,30l-10,0 L 560,608 l-80,0 l 0-120 l-10,0 c-16.5,0, -30-13.5, -30-30l 0-100 c 0-16.5, 13.5-30, 30-30l 10,0 
		l 0-360 L 560-32 L 560,328 z M 480,448L 560,448 l 0-80 l-80,0 L 480,448 zM 370,88c 16.5,0 30,13.5 30,30l0,100 c0,16.5-13.5,30-30,30l-10,0 L 360,608 l-80,0 l 0-360 l-10,0 c-16.5,0, -30-13.5, -30-30l 0-100 c 0-16.5, 13.5-30, 30-30l 10,0 
		l 0-120 l 80,0 l0,120 L 370,88 z M 280,208l 80,0 l 0-80 l-80,0 L 280,208 zM 170,328c 16.5,0 30,13.5 30,30l0,100 c0,16.5-13.5,30-30,30l-10,0 L 160,608 l-80,0 l 0-120 l-10,0 c-16.5,0, -30-13.5, -30-30l 0-100 c 0-16.5, 13.5-30, 30-30l 10,0 
		l 0-360 l 80,0 L 160,328 L 170,328 z M 80,448l 80,0 l 0-80 l-80,0 L 80,448 z"  />
<glyph unicode="&#x3b;" d="M 320,608C 143.269,608,0,464.731,0,288s 143.269-320, 320-320s 320,143.269, 320,320S 496.731,608, 320,608z M 320,48
		c-132.549,0-240,107.451-240,240c0,132.549, 107.451,240, 240,240c 132.549,0, 240-107.451, 240-240C 560,155.451, 452.549,48, 320,48zM 280,448A40,40 10980 1 1 360,448A40,40 10980 1 1 280,448zM 400,408A40,40 10980 1 1 480,408A40,40 10980 1 1 400,408zM 160,408A40,40 10980 1 1 240,408A40,40 10980 1 1 160,408zM 280,168L 280,128L 360,128L 360,168L 320,368 	z"  />
<glyph unicode="&#x3d;" d="M0,488l0-440 l 640,0 L 640,488 L0,488 z M 240,208l0,80 l 160,0 l0-80 L 240,208 z M 400,168l0-80 L 240,88 l0,80 L 400,168 z M 400,408l0-80 L 240,328 l0,80 L 400,408 z M 200,408l0-80 L 40,328 l0,80 L 200,408 z
	 M 40,288l 160,0 l0-80 L 40,208 L 40,288 z M 440,288l 160,0 l0-80 L 440,208 L 440,288 z M 440,328l0,80 l 160,0 l0-80 L 440,328 z M 40,168l 160,0 l0-80 L 40,88 L 40,168 z M 440,88l0,80 l 160,0 l0-80 L 440,88 z"  />
<glyph unicode="&#x23;" d="M 529.952,497.984c-46.144,46.176-80.8,39.264-80.8,39.264L 287.456,375.552L 102.72,190.816L 70.4,38.4l 152.416,32.32l 184.736,184.736l 161.664,161.664
		C 569.216,417.12, 576.16,451.776, 529.952,497.984z M 213.728,89.056l-51.936-11.2c-5.024,9.376-11.072,18.752-22.112,29.824
		c-11.040,11.040-20.448,17.056-29.824,22.080l 11.232,51.968l 15.008,15.008c0,0, 28.288-0.576, 60.192-32.48c 31.936-31.936, 32.512-60.224, 32.512-60.224
		L 213.728,89.056z"  />
<glyph unicode="&#x27;" d="M 224,320L 32,320 c-17.664,0-32-14.336-32-32s 14.336-32, 32-32l 192,0 c 17.664,0, 32,14.336, 32,32S 241.664,320, 224,320z M 224,192L 32,192 c-17.664,0-32-14.304-32-32s 14.336-32, 32-32l 192,0 
		c 17.664,0, 32,14.304, 32,32S 241.664,192, 224,192z M 620.8,320L 512,320 L 512,428.8 C 512,446.464, 497.696,448, 480,448s-32-1.536-32-19.2L 448,320 l-105.6,0 C 324.704,320, 323.2,305.664, 323.2,288
		s 1.536-32, 19.232-32L 448,256 l0-108.8 c0-17.664, 14.304-19.2, 32-19.2s 32,1.536, 32,19.2L 512,256 l 108.8,0 c 17.664,0, 19.2,14.336, 19.2,32S 638.464,320, 620.8,320z M 224,448L 32,448 
		C 14.336,448,0,433.664,0,416s 14.336-32, 32-32l 192,0 c 17.664,0, 32,14.336, 32,32S 241.664,448, 224,448z"  />
<glyph unicode="&#x28;" d="M 640,408L 320,568L0,408l 320-160L 640,408z M 320,514.894L 533.786,408L 320,301.106L 106.214,408L 320,514.894zM 575.902,320.049 L 640,288 L 320,128 L 0,288 L 64.097,320.049 L 320,192.098 ZM 575.902,200.049 L 640,168 L 320,8 L 0,168 L 64.097,200.049 L 320,72.098 Z"  />
<glyph unicode="&#x29;" d="M0,528l0-520 l 640,0 L 640,528 L0,528 z M 600,48L 40,48 L 40,488 l 560,0 L 600,48 zM 440,388A60,60 2700 1 1 560,388A60,60 2700 1 1 440,388zM 560,88 L 80,88 L 200,408 L 360,208 L 440,268 Z"  />
<glyph unicode="&#x2b;" d="M0,528l0-480 l 640,0 L 640,528 L0,528 z M 120,88L 40,88 l0,80 l 80,0 L 120,88 z M 120,248L 40,248 l0,80 l 80,0 L 120,248 z M 120,408L 40,408 L 40,488 l 80,0 L 120,408 z M 480,88L 160,88 L 160,488 l 320,0 L 480,88 z
		 M 600,88l-80,0 l0,80 l 80,0 L 600,88 z M 600,248l-80,0 l0,80 l 80,0 L 600,248 z M 600,408l-80,0 L 520,488 l 80,0 L 600,408 zM 240,408L 240,168L 400,288 	z"  />
<glyph unicode="&#x2c;" d="M 320,448c-88.36,0-160-71.64-160-160s 71.64-160, 160-160s 160,71.64, 160,160S 408.36,448, 320,448z M 320,168
			c-66.26,0-120,53.74-120,120s 53.74,120, 120,120s 120-53.74, 120-120S 386.26,168, 320,168z M 320,608C 143.26,608,0,464.74,0,288s 143.26-320, 320-320s 320,143.26, 320,320
			S 496.74,608, 320,608z M 320,48C 187.46,48, 80,155.46, 80,288S 187.46,528, 320,528s 240-107.46, 240-240S 452.54,48, 320,48z M 320,348c-33.14,0-60-26.86-60-60
			s 26.86-60, 60-60s 60,26.86, 60,60S 353.14,348, 320,348z"  />
<glyph unicode="&#x2d;" d="M 595.872,561.349l-2.517,2.526c-58.843,58.834-155.121,58.834-213.954,0L 243.085,427.54
		c-58.834-58.833-58.834-155.11,0-213.944l 2.516-2.516c 4.895-4.905, 10.091-9.328, 15.46-13.411l 49.905,49.906
		c-5.814,3.434-11.329,7.545-16.322,12.537l-2.526,2.526c-31.946,31.936-31.946,83.92,0,115.869L 428.447,514.828
		c 31.947,31.949, 83.921,31.949, 115.866,0l 2.526-2.515c 31.938-31.947, 31.938-83.933,0-115.869l-61.679-61.679
		c 10.708-26.442, 15.78-54.625, 15.336-82.741l 95.378,95.378C 654.709,406.236, 654.709,502.513, 595.872,561.349zM 394.401,364.916c-4.895,4.895-10.091,9.326-15.46,13.4l-49.905-49.895c 5.815-3.435, 11.329-7.546, 16.322-12.539l 2.526-2.525
		c 31.947-31.947, 31.947-83.92,0-115.868L 211.554,61.156c-31.949-31.939-83.923-31.939-115.868,0l-2.526,2.526
		c-31.936,31.95-31.936,83.923,0,115.868l 61.68,61.679c-10.709,26.441-15.779,54.626-15.336,82.741l-95.376-95.374
		c-58.835-58.833-58.835-155.111,0-213.953l 2.516-2.52c 58.845-58.83, 155.12-58.83, 213.955,0l 136.319,136.324
		c 58.834,58.833, 58.834,155.121,0,213.954L 394.401,364.916z"  />
<glyph unicode="&#x3a;" d="M 448,140.8c-31.584,0-58.752-19.136-70.528-46.4L 272,94.4 c-45.184,0-49.408,38.144-49.6,49.6l0,123.776 c 13.792-6.368, 30.176-10.176, 49.6-10.176
	l 105.472,0 c 11.776-27.296, 38.944-46.4, 70.528-46.4c 42.4,0, 76.8,34.4, 76.8,76.8S 490.4,364.8, 448,364.8c-31.584,0-58.752-19.136-70.528-46.4L 272,318.4 
	c-45.184,0-49.408,38.144-49.6,49.6L 222.4,441.472 C 249.696,453.248, 268.768,480.416, 268.768,512c0,42.4-34.368,76.8-76.768,76.8S 115.2,554.4, 115.2,512
	c0-31.584, 19.136-58.72, 46.4-70.528L 161.6,144 c0-44.384, 29.408-110.4, 110.4-110.4l 105.472,0 c 11.776-27.296, 38.944-46.4, 70.528-46.4
	c 42.4,0, 76.8,34.368, 76.8,76.8C 524.8,106.4, 490.4,140.8, 448,140.8z M 448,332.32c 24.48,0, 44.32-19.84, 44.32-44.32s-19.84-44.32-44.32-44.32
	s-44.32,19.84-44.32,44.32S 423.52,332.32, 448,332.32z M 147.68,512c0,24.48, 19.84,44.32, 44.32,44.32S 236.32,536.48, 236.32,512S 216.48,467.68, 192,467.68
	S 147.68,487.52, 147.68,512z M 448,19.68c-24.48,0-44.32,19.84-44.32,44.32s 19.84,44.32, 44.32,44.32s 44.32-19.84, 44.32-44.32
	S 472.48,19.68, 448,19.68z"  />
<glyph unicode="&#x2f;" d="M 320,595.2c-169.664,0-307.2-137.536-307.2-307.2s 137.536-307.2, 307.2-307.2c 169.696,0, 307.2,137.536, 307.2,307.2S 489.696,595.2, 320,595.2z M 485.312,453.248
		l-0.064,0.064C 485.248,453.28, 485.312,453.248, 485.312,453.248z M 86.272,288c0,129.088, 104.64,233.728, 233.728,233.728c 56.128,0, 107.648-19.776, 147.968-52.736
		L 139.040,140.096C 106.048,180.384, 86.272,231.872, 86.272,288z M 154.688,122.752l 0.064-0.064C 154.72,122.72, 154.72,122.72, 154.688,122.752z M 320,54.24
		c-56.128,0-107.616,19.808-147.904,52.768L 500.928,435.904c 32.992-40.288, 52.8-91.776, 52.8-147.904C 553.76,158.912, 449.056,54.24, 320,54.24z"  />
<glyph unicode="&#x3c;" d="M 320,556.8c-148.48,0-268.8-120.384-268.8-268.8c0-148.48, 120.352-268.8, 268.8-268.8c 148.448,0, 268.8,120.352, 268.8,268.8C 588.8,436.448, 468.448,556.8, 320,556.8z
		 M 352.704,255.296l0-128.864 L 287.296,126.432 l0,128.864 L 158.4,255.296 L 158.4,320.704 l 128.864,0 L 287.264,449.6 l 65.44,0 l0-128.864 l 128.864,0 l0-65.44 L 352.704,255.296 z"  />
<glyph unicode="&#x3e;" d="M 320,556.8c-148.48,0-268.8-120.384-268.8-268.8c0-148.48, 120.352-268.8, 268.8-268.8c 148.448,0, 268.8,120.352, 268.8,268.8C 588.8,436.448, 468.448,556.8, 320,556.8z
		 M 481.6,320.704l0-65.44 L 158.4,255.264 L 158.4,320.704 L 481.6,320.704 z"  />
<glyph unicode="&#x3f;" d="M 512,544L 128,544 C 92.8,544, 64,515.2, 64,480l0-384 c0-35.2, 28.8-64, 64-64l 384,0 c 35.2,0, 64,28.8, 64,64L 576,480 C 576,515.2, 547.2,544, 512,544z M 417.952,134.752L 320,232.672
	l-97.952-97.952l-55.296,55.328L 264.672,288l-97.92,97.92l 55.296,55.328L 320,343.328l 97.92,97.92l 55.328-55.296L 375.328,288l 97.952-97.952L 417.952,134.752z"  />
<glyph unicode="&#x41;" d="M 499.2,544L 460.8,448L 179.2,448 L 140.8,544C 116.16,544, 96,523.84, 96,499.2l0-486.4 C 96-11.84, 116.16-32, 140.8-32l 358.4,0 c 24.672,0, 44.8,20.16, 44.8,44.8L 544,499.2 
	C 544,523.84, 523.84,544, 499.2,544z M 435.2,480l 28.8,64l-69.76,0 L 371.2,608L 268.8,608 L 245.76,544L 176,544 l 28.8-64L 435.2,480 z"  />
<glyph unicode="&#x43;" d="M0-32l 320,0 L 320,608 L0,608 L0-32 z M 200,528l 80,0 l0-80 l-80,0 L 200,528 z M 200,368l 80,0 l0-80 l-80,0 L 200,368 z M 200,208l 80,0 l0-80 l-80,0 L 200,208 z M 40,528l 80,0 l0-80 L 40,448 L 40,528 z M 40,368
			l 80,0 l0-80 L 40,288 L 40,368 z M 40,208l 80,0 l0-80 L 40,128 L 40,208 zM 360,408L 640,408L 640,368L 360,368zM 360-32L 440-32L 440,128L 560,128L 560-32L 640-32L 640,328L 360,328 		z"  />
<glyph unicode="&#x45;" d="M 600.64,278.4l-256.768,256.992c-13.12,13.632-34.592,13.632-47.712,0L 39.36,278.4c-13.152-13.6-8.256-24.768, 10.88-24.768l 53.536,0 l0-197.376 
		c0-14.24, 0.608-25.888, 26.368-25.888l 124.64,0 l0,198.016 l 130.4,0 l0-198.016 l 130.848,0 c 19.648,0, 20.192,11.616, 20.192,25.888l0,197.376 l 53.504,0 
		C 608.832,253.632, 613.76,264.768, 600.64,278.4z"  />
<glyph unicode="&#x48;" d="M 499.2,461.504c0,68.48,0,75.168,0,75.168C 499.2,561.952, 418.976,608, 320,608S 140.8,561.952, 140.8,536.672c0,0,0-6.688,0-75.168
		c0-68.48, 124.064-125.024, 124.064-173.504c0-48.512-124.064-105.024-124.064-173.536c0-68.48,0-75.168,0-75.168C 140.8,14.048, 221.024-32, 320-32
		s 179.2,46.048, 179.2,71.328c0,0,0,6.688,0,75.168c0,68.512-124.032,125.024-124.032,173.536C 375.168,336.48, 499.2,393.056, 499.2,461.504z M 190.080,533.472
		c 22.272,14.048, 64.032,34.656, 131.648,34.656c 67.648,0, 128.192-34.656, 128.192-34.656c 4.544-2.752, 22.336-12.288, 10.144-19.488
		c-26.848-15.904-79.328-32.64-140.096-32.64S 208.512,499.808, 181.664,515.712C 169.472,522.944, 190.080,533.472, 190.080,533.472z M 336.032,288
		c0-38.176, 31.872-62.752, 65.664-95.552c 24.672-23.968, 58.4-56.768, 58.4-77.984l0-42.496 c-31.008,15.456-123.872,30.592-123.872,80.128
		c0,25.088-32.448,25.088-32.448,0c0-49.536-92.864-64.672-123.872-80.128l0,42.496 c0,21.184, 33.76,54.016, 58.432,77.984
		C 272.096,225.248, 303.968,249.824, 303.968,288c0,38.176-31.872,62.752-65.632,95.552C 213.664,407.52, 179.904,440.352, 179.904,461.504l-1.504,32
		C 211.232,475.84, 263.296,458.976, 320,458.976s 109.024,16.864, 141.856,34.528l-1.76-32c0-21.152-33.76-53.984-58.4-77.952
		C 367.904,350.752, 336.032,326.176, 336.032,288z"  />
<glyph unicode="&#x4a;" d="M 320,467.2C 110.048,467.2,0,312.544,0,288s 110.048-179.2, 320-179.2s 320,154.656, 320,179.2S 529.952,467.2, 320,467.2z M 320,150.144
		c-78.528,0-142.208,61.728-142.208,137.856S 241.472,425.856, 320,425.856c 78.56,0, 142.24-61.728, 142.24-137.856S 398.56,150.144, 320,150.144z M 320,288
		c-12.992,14.272, 21.248,68.896,0,68.896c-39.264,0-71.104-30.848-71.104-68.896S 280.736,219.072, 320,219.072c 39.296,0, 71.136,30.88, 71.136,68.928
		C 391.136,305.472, 331.104,275.84, 320,288z"  />
<glyph unicode="&#x4b;" d="M 51.008,438.848c 15.616-8.416, 231.968-124.608, 240.032-128.928C 299.072,305.6, 309.504,303.52, 320,303.52c 10.528,0, 20.96,2.080, 28.992,6.432
		c 8.064,4.32, 224.384,120.512, 240,128.928C 604.64,447.264, 619.424,473.6, 590.72,473.6L 49.312,473.6 C 20.608,473.6, 35.36,447.264, 51.008,438.848z M 595.616,374.848
		c-17.76-9.28-235.744-123.232-246.624-128.928S 330.528,239.488, 320,239.488c-10.496,0-18.080,0.736-28.96,6.432S 62.144,365.6, 44.416,374.848
		C 31.904,381.376, 32,373.728, 32,367.84c0-5.888,0-234.72,0-234.72C 32,119.68, 49.888,102.4, 63.744,102.4l 512.544,0 c 13.888,0, 31.712,17.28, 31.712,30.688
		c0,0,0,228.832,0,234.72C 608,373.728, 608.128,381.376, 595.616,374.848z"  />
<glyph unicode="&#x4e;" d="M 520,328l-40,0 l0,120 C 480,536.365, 408.365,608, 320,608c-88.365,0-160-71.635-160-160l0-120 L 120,328 c-22,0-40-18-40-40l0-280 
	c0-22, 18-40, 40-40l 400,0 c 22,0, 40,18, 40,40L 560,288 C 560,310, 542,328, 520,328z M 320,88c-22.091,0-40,17.909-40,40
	s 17.909,40, 40,40s 40-17.909, 40-40S 342.091,88, 320,88z M 400,328L 240,328 l0,120 c0,44.112, 35.888,80, 80,80s 80-35.888, 80-80L 400,328 z"  />
<glyph unicode="&#x53;" d="M 370,328l-10,0 l0,120 c0,66.169-53.831,120-120,120l-80,0 c-66.169,0-120-53.831-120-120l0-120 l-10,0 c-16.5,0-30-13.5-30-30l0-300 
	c0-16.5, 13.5-30, 30-30l 340,0 c 16.5,0, 30,13.5, 30,30L 400,298 C 400,314.5, 386.5,328, 370,328z M 240,48l-80,0 l 17.4,87
	C 166.895,142.207, 160,154.296, 160,168c0,22.091, 17.909,40, 40,40c 22.091,0, 40-17.909, 40-40c0-13.704-6.895-25.793-17.4-33L 240,48
	z M 280,328L 120,328 l0,120 c0,22.056, 17.944,40, 40,40l 80,0 c 22.056,0, 40-17.944, 40-40L 280,328 z"  />
<glyph unicode="&#x56;" d="M 480,568l-80,0 c-66.169,0-120-53.831-120-120l0-120 L 30,328 c-16.5,0-30-13.5-30-30l0-300 c0-16.5, 13.5-30, 30-30l 340,0 c 16.5,0, 30,13.5, 30,30L 400,298 
	c0,16.5-13.5,30-30,30l-10,0 l0,120 c0,22.056, 17.944,40, 40,40l 80,0 c 22.056,0, 40-17.944, 40-40l0-120 l 80,0 l0,120 C 600,514.169, 546.169,568, 480,568z
	 M 240,48l-80,0 l 17.4,87C 166.895,142.207, 160,154.296, 160,168c0,22.091, 17.909,40, 40,40c 22.091,0, 40-17.909, 40-40
	c0-13.704-6.895-25.793-17.4-33L 240,48z"  />
<glyph unicode="&#x58;" d="M 45.016,405.742c-3.121,0-5.628,2.525-5.628,5.632L 39.389,562.984 c0,3.107, 2.507,5.628, 5.628,5.628l 307.359,0 
			c 3.121,0, 5.628-2.52, 5.628-5.628l0-151.609 c0-3.107-2.507-5.632-5.628-5.632L 45.016,405.742 zM 435.209,562.984c0,3.116, 2.516,5.628, 5.628,5.628l 151.605,0 c 3.098,0, 5.628-2.511, 5.628-5.628l0-307.368 
			c0-3.112-2.529-5.628-5.628-5.628L 440.836,249.988 c-3.112,0-5.628,2.516-5.628,5.628L 435.209,562.984 zM 592.441,172.782c 3.098,0, 5.628-2.503, 5.628-5.628l0-151.596 c0-3.098-2.529-5.628-5.628-5.628l-307.377,0 
			c-3.107,0-5.628,2.529-5.628,5.628L 279.437,167.155 c0,3.125, 2.52,5.628, 5.628,5.628L 592.441,172.782 zM 202.258,15.559c0-3.116-2.525-5.628-5.632-5.628L 45.016,9.931 c-3.107,0-5.628,2.511-5.628,5.628L 39.389,322.922 
			c0,3.121, 2.52,5.628, 5.628,5.628l 151.609,0 c 3.107,0, 5.632-2.507, 5.632-5.628L 202.258,15.559 z"  />
<glyph unicode="&#x59;" d="M 600.96,364.738c0,3.138-2.525,5.667-5.672,5.667l-122.982,0 l-14.261,0 c-1.562,0-2.966-0.631-3.99-1.651
				l-3.968-4.034l-72.024-71.989c-1.227-1.033-1.999-2.591-1.999-4.326c0-1.743, 0.772-3.297, 2.013-4.334l 72.011-72.002l 3.968-4.034
				c 1.024-1.011, 2.428-1.646, 3.99-1.646l 14.261,0 l 122.982,0 c 3.147,0, 5.672,2.551, 5.672,5.667L 600.96,364.738 zM 243.297,569.754c-3.129,0-5.672-2.529-5.672-5.672l0-123.004 l0-14.234 c0-1.571, 0.636-2.979, 1.664-4.008
				l 4.021-3.968l 71.989-72.024c 1.033-1.231, 2.591-2.008, 4.33-2.008c 1.748,0, 3.297,0.786, 4.33,2.017L 395.953,418.869l 4.039,3.968
				c 1.028,1.024, 1.646,2.436, 1.646,4.008l0,14.234 L 401.638,564.083 c0,3.138-2.538,5.672-5.667,5.672L 243.297,569.754 zM 38.303,212.061c0-3.116, 2.534-5.667, 5.672-5.667l 123.004,0 l 14.239,0 c 1.567,0, 2.979,0.636, 4.008,1.646
				l 3.968,4.034l 72.024,71.993c 1.227,1.042, 2.008,2.591, 2.008,4.326c0,1.743-0.786,3.302-2.017,4.339L 189.188,364.725l-3.968,4.034
				c-1.028,1.020-2.436,1.651-4.008,1.651l-14.239,0 L 43.975,370.41 c-3.134,0-5.672-2.529-5.672-5.667L 38.303,212.061 zM 395.97,7.058c 3.129,0, 5.667,2.525, 5.667,5.672l0,122.986 l0,14.243 c0,1.58-0.618,2.984-1.646,4.008
				l-4.039,3.964L 323.986,229.963c-1.046,1.227-2.604,1.999-4.348,1.999c-1.739,0-3.293-0.786-4.321-2.013l-72.002-72.015l-4.021-3.964
				c-1.028-1.024-1.664-2.428-1.664-4.008l0-14.243 l0-122.986 c0-3.147, 2.547-5.672, 5.672-5.672L 395.97,7.062 z"  />
<glyph unicode="&#x5a;" d="M 438.091,329.86c-0.719-0.38-1.501-0.565-2.353-0.565c-0.87,0-1.673,0.185-2.397,0.538L 322.3,382.641
			c-0.671,0.322-1.426,0.512-2.308,0.512c-0.865,0-1.611-0.19-2.339-0.512L 65.412,262.612l-0.375-0.19
			c-0.724-0.34-1.532-0.508-2.414-0.508c-2.926,0-5.367,2.361-5.367,5.367l0,0.247 L 57.256,425.039 c0,2.207, 1.311,4.105, 3.191,4.939
			l 255.413,121.476l 1.792,0.892c 0.728,0.291, 1.474,0.481, 2.339,0.481c 0.781,0, 1.496-0.163, 2.172-0.433l 2.15-0.993l 255.192-121.423
			c 1.849-0.83, 3.187-2.732, 3.187-4.939l 0.057-22.643c0-2.123-1.223-4.008-3.001-4.86L 438.091,329.86zM 201.922,246.14c 0.697,0.371, 1.532,0.534, 2.366,0.534c 0.852,0, 1.607-0.163, 2.357-0.508l 111.033-52.776
			c 0.702-0.353, 1.505-0.516, 2.313-0.516c 0.887,0, 1.642,0.163, 2.339,0.516l 252.288,120.024l 0.353,0.137c 0.75,0.349, 1.549,0.53, 2.383,0.53
			c 2.975,0, 5.394-2.357, 5.394-5.336l0-0.269 l0-157.489 c0-2.233-1.333-4.14-3.218-4.939l-255.382-121.481l-1.818-0.874
			c-0.675-0.305-1.457-0.521-2.339-0.521c-0.772,0-1.47,0.168-2.145,0.459l-2.15,1.055l-255.188,121.362
			c-1.88,0.799-3.2,2.706-3.2,4.939l-0.053,22.621c0,2.123, 1.258,3.999, 3.032,4.873L 201.922,246.14z"  />
<glyph unicode="&#x49;" d="M 281.604,564.361c0,2.794-2.282,5.041-5.032,5.041c-1.54,0-2.94-0.697-3.893-1.801L 142.552,437.508
		c-45.361-45.391-73.401-108.036-73.401-177.249c0-138.386, 112.221-250.575, 250.62-250.575c 138.386,0, 250.575,112.19, 250.575,250.575
		c0,84.917-42.275,159.978-106.893,205.299L 367.219,465.558 L 363.652,465.558 c-1.395,0.11-2.865-0.406-3.964-1.434c-1.002-1.028-1.474-2.278-1.474-3.571
		l 0.079-99.54c 40.47-15.475, 69.142-54.656, 69.142-100.533c0-59.476-48.238-107.666-107.661-107.666
		c-59.516,0-107.666,48.19-107.666,107.666l 0.146-0.075c0,44.107, 26.536,82.004, 64.516,98.622l 1.536,0.627
		c 1.951,0.733, 3.306,2.573, 3.306,4.705L 281.613,564.361 z"  />
<glyph unicode="&#x4d;" d="M 203.564,220.694c-0.993-1.042-1.695-2.485-1.695-4.109l0-197.142 l0-3.646 c0-3.196-2.569-5.8-5.764-5.8l-2.481,0 
			L 57.097,9.997 l-8.62,0 l-3.646,0 c-3.196,0-5.844,2.609-5.844,5.8l0,2.529 l0,3.853 L 38.987,280.982 l0,4.052 c0,1.576, 0.711,3.032, 1.774,4.149l 1.783,1.743
			l 271.726,271.687l 4.476,4.515c 1.126,1.073, 2.573,1.655, 4.030,1.655l 5.711-0.040l 100.114,0 c 1.655,0.128, 3.222-0.41, 4.52-1.655
			c 1.236-1.249, 1.726-2.86, 1.611-4.476l0-102.63 l 0.031-5.72c0-1.492-0.534-2.904-1.642-4.021l-4.52-4.559L 203.564,220.694zM 443.679,119.874c-1.064-1.073-1.739-2.481-1.739-4.096l0-96.335 l0-3.646 c0-3.196-2.564-5.8-5.804-5.8
			l-2.485,0 l-136.474,0 l-8.625,0 l-3.65,0 c-3.235,0-5.795,2.609-5.795,5.8l0,2.529 l0,3.853 L 279.106,180.18 l0,4.087 c0,1.571, 0.658,2.993, 1.739,4.061
			l 1.783,1.832l 194.948,194.9l 4.467,4.559c 1.17,1.081, 2.586,1.62, 4.070,1.62l 5.681-0.040l 100.14,0 
			c 1.615,0.124, 3.226-0.419, 4.471-1.664c 1.249-1.24, 1.783-2.9, 1.664-4.48l0-102.585 l 0.093-5.804c0-1.404-0.627-2.865-1.752-3.972
			l-4.471-4.52L 443.679,119.874z"  />
<glyph unicode="&#x5b;" d="M 599.071,136.85c 2.013,0.896, 3.434,2.904, 3.434,5.274L 602.505,307.54 l0,0.296 c0,3.165-2.582,5.742-5.778,5.742
				c-0.883,0-1.73-0.194-2.494-0.605l-0.441-0.185L 322.092,183.887c-0.733-0.349-1.585-0.538-2.467-0.538
				c-0.887,0-1.739,0.19-2.458,0.538L 45.422,313.459l-0.397,0.203c-0.759,0.366-1.611,0.569-2.542,0.569
				c-3.138,0-5.72-2.569-5.72-5.729l0-0.322 l0-165.411 c0-2.339, 1.408-4.374, 3.425-5.252l 274.926-131.054l 2.339-1.090
				c 0.684-0.309, 1.452-0.472, 2.295-0.472c 0.9,0, 1.739,0.19, 2.467,0.552l 1.894,0.918L 599.071,136.85zM 398.618,293.058c 2.061,0.892, 3.469,2.9, 3.469,5.239L 402.088,564.515 L 402.088,564.838 c0,3.143-2.569,5.725-5.764,5.725
				c-0.927,0-1.735-0.203-2.542-0.583l-0.402-0.199l-71.287-33.832c-0.733-0.349-1.585-0.547-2.467-0.547
				c-0.887,0-1.739,0.199-2.458,0.561L 245.835,569.781l-0.397,0.199c-0.768,0.38-1.62,0.583-2.507,0.583
				c-3.182,0-5.764-2.582-5.764-5.725l0-0.322 l0-266.218 c0-2.339, 1.412-4.348, 3.421-5.239l 74.518-35.328l 2.339-1.081
				c 0.684-0.327, 1.452-0.49, 2.295-0.49c 0.9,0, 1.739,0.203, 2.467,0.561l 1.894,0.892L 398.618,293.058z"  />
<glyph unicode="&#x5d;" d="M 203.555,333.7c-0.817-2.247-2.962-3.822-5.473-3.822L 38.978,329.878 c-3.209,0-5.835,2.595-5.835,5.831
			c0,0.309, 0.013,0.609, 0.062,0.9l 0.049,0.296c 18.507,123.29, 114.882,219.494, 238.252,237.767l 0.291,0.049
			c 0.366,0.062, 0.719,0.093, 1.099,0.093c 3.218,0, 5.831-2.604, 5.831-5.831l0-3.774 l0-155.127 c0-2.547-1.62-4.696-3.884-5.508l-0.093-0.018
			c-33.152-11.613-59.282-37.645-71.137-70.7L 203.555,333.7zM 361.326,404.44c-2.233,0.821-3.827,2.97-3.827,5.478L 357.5,569.026 c0,3.226, 2.6,5.839, 5.835,5.839
			c 0.305,0, 0.605-0.022, 0.918-0.071l 0.269-0.049c 123.295-18.507, 219.52-114.86, 237.784-238.252l 0.044-0.291
			c 0.071-0.362, 0.093-0.711, 0.093-1.081c0-3.226-2.613-5.844-5.831-5.844l-3.787,0 L 437.72,329.278 c-2.551,0-4.696,1.615-5.517,3.88l0,0.097 
			c-11.613,33.161-37.645,59.286-70.705,71.128L 361.326,404.44zM 432.026,246.713c 0.825,2.247, 2.962,3.831, 5.491,3.831l 159.095,0 c 3.218,0, 5.831-2.609, 5.831-5.822
			c0-0.313-0.026-0.609-0.079-0.918l-0.031-0.282c-18.498-123.29-114.86-219.511-238.274-237.789l-0.291-0.026
			c-0.335-0.062-0.684-0.11-1.064-0.11c-3.218,0-5.831,2.617-5.831,5.831l0,3.783 L 356.873,170.342 c0,2.538, 1.624,4.696, 3.875,5.491
			l 0.093,0.018c 33.165,11.604, 59.299,37.645, 71.115,70.705L 432.026,246.713zM 274.264,176.022c 2.229-0.821, 3.822-2.966, 3.822-5.478l0-159.1 c0-3.235-2.604-5.853-5.831-5.853
			c-0.313,0-0.614,0.026-0.905,0.079l-0.291,0.044c-123.299,18.503-219.502,114.865-237.775,238.274L 33.236,244.268
			c-0.062,0.34-0.093,0.706-0.093,1.081c0,3.218, 2.604,5.826, 5.835,5.826l 3.769,0 l 155.127,0 c 2.542,0, 4.692-1.629, 5.504-3.875l 0.013-0.093
			c 11.599-33.165, 37.654-59.295, 70.709-71.128L 274.264,176.022z"  />
<glyph unicode="&#x5f;" d="M 496.68,326.087c 1.549,0, 2.966,0.631, 3.99,1.655l 1.766,1.766l 87.38,87.349l 4.387,4.387
			c 1.073,1.077, 1.629,2.489, 1.629,3.919l-0.044,5.557l 0.018,97.47c 0.128,1.576-0.419,3.196-1.62,4.396
			c-1.205,1.209-2.834,1.743-4.396,1.611l-99.893-0.009l-5.548,0.031c-1.426,0-2.851-0.538-3.942-1.615l-4.374-4.383l-42.024-41.931
			c-1.020-1.011-2.432-1.642-3.999-1.642L 53.067,484.648 l-3.558,0 c-3.116,0-5.628-2.525-5.628-5.636l0-2.45 l0-132.886 l0-8.404 l0-3.54 
			c0-3.125, 2.516-5.641, 5.628-5.641l 2.458,0 l 3.73,0 l 437.036,0 L 496.68,326.091 zM 143.038,249.706c-1.562,0-2.97-0.644-3.994-1.655L 137.269,246.29l-87.375-87.353l-4.383-4.383
			c-1.086-1.086-1.624-2.507-1.624-3.915l 0.026-5.548l-0.004-97.492c-0.128-1.576, 0.406-3.2, 1.615-4.392
			c 1.201-1.209, 2.834-1.748, 4.401-1.615l 99.884,0.013l 5.553-0.044c 1.43,0, 2.842,0.556, 3.937,1.633l 4.378,4.378l 42.024,41.913
			c 1.020,1.024, 2.432,1.668, 3.994,1.668l 376.947,0 l 3.553,0 c 3.112,0, 5.641,2.525, 5.641,5.628l0,2.458 L 595.836,232.117 l0,8.399 l0,3.553 
			c0,3.103-2.529,5.636-5.641,5.636l-2.454,0 l-3.734,0 L 146.97,249.706 L 143.038,249.706 z"  />
<glyph unicode="&#x7e;" d="M 337.752,554.302l 217.291-101.967l 16.971-7.918l 2.913-1.373c 1.704-0.887, 2.882-2.653, 2.882-4.648l0-2.335 l0-19.535 
		l0-259.284 l0-18.101 l0-3.738 c0-2.158-1.306-3.99-3.134-4.745l-1.854-0.883l-17.779-8.351l-217.159-101.888l-8.236-3.827l-6.215-2.909
		c-0.697-0.388-1.514-0.543-2.33-0.543c-0.812,0-1.567,0.154-2.264,0.477l-3.266,1.514l-11.282,5.288l-217.282,101.844l-18.375,8.585
		l-1.315,0.64c-1.796,0.808-3.081,2.6-3.081,4.705l0,3.955 l0,17.902 L 64.238,306.547 l0,39.349 l0,6.846 c0,2.829, 2.286,5.151, 5.177,5.151
		c 0.821,0, 1.633-0.154, 2.322-0.534l 48.94-23.212l 64.905-30.786l 18.273-8.638l 1.664-0.781c 1.602-0.892, 2.67-2.582, 2.67-4.564l0-2.419 
		l0-11.198 l0-48.786 c0-2.132, 1.289-3.955, 3.112-4.785l 107.595-50.419c 0.653-0.278, 1.417-0.49, 2.194-0.49
		c 0.887,0, 1.695,0.243, 2.45,0.649l 1.412,0.636l 103.954,49.002l 1.933,0.914c 1.766,0.843, 2.966,2.609, 2.966,4.679l0,1.818 L 433.805,344.969 l0,1.567 
		c0,2.048-1.196,3.844-2.966,4.683l-2.097,0.975L 323.31,402.048c-0.724,0.375-1.505,0.596-2.326,0.596c-0.75,0-1.505-0.221-2.136-0.508
		l-65.748-30.945l-11.057-5.177l-3.491-1.638c-0.689-0.313-1.443-0.499-2.255-0.499c-0.821,0-1.638,0.185-2.326,0.499l-2.516,1.196
		L 76.999,438.166c-1.788,0.817-3.019,2.604-3.019,4.683c0,2.136, 1.258,3.959, 3.081,4.771l 227.090,106.677l 14.795,6.947
		c 0.596,0.278, 1.289,0.406, 2.039,0.406c 0.847,0, 1.664-0.221, 2.392-0.622L 337.752,554.302z"  />
<glyph unicode="&#x65;" d="M 368.631,6.912c-0.349-0.035-0.719-0.079-1.068-0.079c-3.209,0-5.791,2.578-5.791,5.804l0,0.825 
		l-0.093,157.793l 0.013,0.106c0,2.432, 1.496,4.506, 3.624,5.367l 0.287,0.102C 409.004,194.114, 438.731,236.597, 438.731,284.853
		c0,64.079-52.145,116.215-116.224,116.215c-64.097,0-116.228-52.136-116.228-116.215c0-48.282, 29.745-90.765, 73.203-108.023l 0.185-0.093
		c 2.101-0.87, 3.575-2.935, 3.575-5.341l 0.004-0.203l-0.004-158.539c0-3.204-2.595-5.795-5.8-5.795c-0.344,0-0.684,0.026-1.015,0.088
		l-0.371,0.062c-2.185,0.353-4.352,0.746-6.524,1.17C 137,33.448, 40.828,149.809, 40.828,284.853c0,155.321, 126.358,281.679, 281.684,281.679
		s 281.688-126.358, 281.688-281.679c0-135.040-96.177-251.401-228.674-276.683c-1.461-0.291-2.913-0.547-4.374-0.79L 368.631,6.912z"  />
<glyph unicode="&#x7c;" d="M 432.018,291.681c0,30.411-11.825,58.973-33.333,80.477c-21.486,21.504-50.088,33.346-80.477,33.346
		c-62.773,0-113.823-51.063-113.823-113.823l-0.004-113.593c0-1.562-0.636-2.966-1.642-3.999l-149.341-149.332
		c-1.024-1.033-2.441-1.655-3.999-1.655c-3.103,0-5.628,2.516-5.628,5.619L 43.772,291.681 c0,151.309, 123.105,274.432, 274.441,274.432
		c 73.3,0, 142.221-28.548, 194.070-80.388c 51.822-51.84, 80.384-120.757, 80.362-194.061l0-270.892 c0-3.112-2.534-5.632-5.628-5.632L 170.73,15.139 
		c-3.103,0-5.632,2.52-5.632,5.632c0,1.536, 0.627,2.935, 1.629,3.955l 149.791,149.358c 1.015,1.033, 2.432,1.668, 3.977,1.668l 105.878,0 
		c 3.103,0, 5.628,2.525, 5.628,5.623L 432.018,291.681z"  />
<glyph unicode="&#x60;" d="M 267.602,568.051 C 275.087,568.051 280,560.627 280.001,546.75 L 280.001,29.25 C 280.001,15.371 275.091,7.949 267.604,7.949 C 262.851,7.949 257.061,10.941 250.832,17.169 L 100,168 L 0,168 L 0,408 L 100,408 L 250.832,558.832 C 257.061,565.061 262.85,568.051 267.602,568.051 ZM 320,328L 640,328L 640,248L 320,248z"  />
<glyph unicode="&#x6a;" d="M 267.602,568.051 C 275.087,568.051 280,560.627 280.001,546.75 L 280.001,29.25 C 280.001,15.371 275.091,7.949 267.604,7.949 C 262.851,7.949 257.061,10.941 250.832,17.169 L 100,168 L 0,168 L 0,408 L 100,408 L 250.832,558.832 C 257.061,565.061 262.85,568.051 267.602,568.051 ZM 640,248 L 520,248 L 520,128 L 440,128 L 440,248 L 320,248 L 320,328 L 440,328 L 440,448 L 520,448 L 520,328 L 640,328 Z"  />
<glyph unicode="&#x7b;" d="M 250.832,558.832 C 266.875,574.875 280,569.437 280,546.75 L 280,29.25 C 280,6.562 266.875,1.126 250.832,17.169 L 100,168 L 0,168 L 0,408 L 100,408 L 250.832,558.832 ZM 600,221.032 L 600,168 L 546.967,168 L 480,234.968 L 413.032,168 L 360,168 L 360,221.032 L 426.968,288 L 360,354.968 L 360,408 L 413.032,408 L 480,341.032 L 546.967,408 L 600,408 L 600,354.968 L 533.033,288 Z"  />
<glyph unicode="&#x7d;" d="M 250.832,558.832 C 266.875,574.875 280,569.437 280,546.75 L 280,29.25 C 280,6.562 266.875,1.126 250.832,17.169 L 100,168 L 0,168 L 0,408 L 100,408 L 250.832,558.832 Z"  />
<glyph unicode="&#xf0000;" d="M 343.137,144.863c-7.679,0-15.355,2.929-21.214,8.786c-11.716,11.716-11.716,30.71,0,42.426
		c 50.688,50.688, 50.688,133.161,0,183.847c-11.716,11.716-11.716,30.711,0,42.426c 11.716,11.715, 30.71,11.715, 42.426,0
		c 74.081-74.081, 74.081-194.62,0-268.701C 358.492,147.791, 350.815,144.863, 343.137,144.863zM 250.832,558.832 C 266.875,574.875 280,569.437 280,546.75 L 280,29.25 C 280,6.562 266.875,1.126 250.832,17.169 L 100,168 L 0,168 L 0,408 L 100,408 L 250.832,558.832 Z"  />
<glyph unicode="&#xe000;" d="M 449.706,88.294c-7.679,0-15.355,2.929-21.214,8.786c-11.715,11.715-11.715,30.71,0,42.426
		c 81.879,81.879, 81.879,215.106,0,296.985c-11.715,11.716-11.715,30.711,0,42.426c 11.715,11.714, 30.711,11.715, 42.426,0
		C 521.915,427.922, 550,360.12, 550,288c0-72.119-28.085-139.923-79.081-190.919C 465.061,91.222, 457.384,88.294, 449.706,88.294zM 343.137,144.863c-7.679,0-15.355,2.929-21.214,8.786c-11.716,11.716-11.716,30.71,0,42.426
		c 50.688,50.688, 50.688,133.161,0,183.847c-11.716,11.716-11.716,30.711,0,42.426c 11.716,11.715, 30.71,11.715, 42.426,0
		c 74.081-74.081, 74.081-194.62,0-268.701C 358.492,147.791, 350.815,144.863, 343.137,144.863zM 250.832,558.832 C 266.875,574.875 280,569.437 280,546.75 L 280,29.25 C 280,6.562 266.875,1.126 250.832,17.169 L 100,168 L 0,168 L 0,408 L 100,408 L 250.832,558.832 Z"  />
<glyph unicode="&#xe001;" d="M 556.275,31.725c-7.679,0-15.355,2.929-21.214,8.786c-11.715,11.716-11.715,30.71,0,42.426
		C 589.835,137.714, 620.001,210.537, 620.001,288c0,77.461-30.166,150.286-84.94,205.061c-11.715,11.716-11.715,30.711,0,42.426
		c 11.715,11.715, 30.711,11.715, 42.426,0c 66.106-66.108, 102.514-154, 102.514-247.488c0-93.489-36.407-181.38-102.514-247.488
		C 571.63,34.654, 563.952,31.725, 556.275,31.725zM 449.706,88.294c-7.679,0-15.355,2.929-21.214,8.786c-11.715,11.715-11.715,30.71,0,42.426
		c 81.879,81.879, 81.879,215.106,0,296.985c-11.715,11.716-11.715,30.711,0,42.426c 11.715,11.714, 30.711,11.715, 42.426,0
		C 521.915,427.922, 550,360.12, 550,288c0-72.119-28.085-139.923-79.081-190.919C 465.061,91.222, 457.384,88.294, 449.706,88.294zM 343.137,144.863c-7.679,0-15.355,2.929-21.214,8.786c-11.716,11.716-11.716,30.71,0,42.426
		c 50.688,50.688, 50.688,133.161,0,183.847c-11.716,11.716-11.716,30.711,0,42.426c 11.716,11.715, 30.71,11.715, 42.426,0
		c 74.081-74.081, 74.081-194.62,0-268.701C 358.492,147.791, 350.815,144.863, 343.137,144.863zM 250.832,558.832 C 266.875,574.875 280,569.437 280,546.75 L 280,29.25 C 280,6.562 266.875,1.126 250.832,17.169 L 100,168 L 0,168 L 0,408 L 100,408 L 250.832,558.832 Z" horiz-adv-x="680"  />
<glyph unicode="&#xe002;" d="M 520,448l 120,120L 600,608l-120-120L 200,488 L 200,608 L 120,608 l0-120 L0,488 l0-80 l 120,0 l0-320 l 320,0 l0-120 l 80,0 l0,120 l 120,0 l0,80 l-120,0 L 520,448 z M 200,408l 200,0 L 200,208L 200,408 z M 240,168
	l 200,200l0-200 L 240,168 z"  />
<glyph unicode="&#xe003;" d="M 320.020,368c 44.060,0, 80-35.9, 80-80s-35.94-80-80-80s-80,35.9-80,80S 275.96,368, 320.020,368 M 320.020,448
			c-88.36,0-160-71.64-160-160s 71.64-160, 160-160C 408.38,128, 480,199.64, 480,288S 408.38,448, 320.020,448L 320.020,448zM 280,568A40,40 1620 1 1 360,568A40,40 1620 1 1 280,568zM 80,488A40,40 1620 1 1 160,488A40,40 1620 1 1 80,488zM 40,328c 22.1,0, 40-17.9, 40-40c0-22.14-17.9-40-40-40s-40,17.86-40,40C0,310.1, 17.9,328, 40,328zM 80,88A40,40 1620 1 1 160,88A40,40 1620 1 1 80,88zM 280,8c0,22.18, 17.9,40, 40,40c 22.16,0, 40-17.82, 40-40c0-22.040-17.84-40-40-40C 297.9-32, 280-14.040, 280,8zM 480,88A40,40 1620 1 1 560,88A40,40 1620 1 1 480,88zM 600,248c-22.080,0-40,17.92-40,40c0,22.14, 17.92,40, 40,40s 40-17.86, 40-40C 640,265.92, 622.080,248, 600,248zM 480,488A40,40 1620 1 1 560,488A40,40 1620 1 1 480,488z" horiz-adv-x="638.75"  />
<glyph unicode="&#xe004;" d="M 320.020,448c-88.36,0-160-71.64-160-160s 71.64-160, 160-160C 408.38,128, 480,199.64, 480,288S 408.38,448, 320.020,448L 320.020,448zM 280,568A40,40 1620 1 1 360,568A40,40 1620 1 1 280,568zM 80,488A40,40 1620 1 1 160,488A40,40 1620 1 1 80,488zM 40,328c 22.1,0, 40-17.9, 40-40c0-22.14-17.9-40-40-40s-40,17.86-40,40C0,310.1, 17.9,328, 40,328zM 80,88A40,40 1620 1 1 160,88A40,40 1620 1 1 80,88zM 280,8c0,22.18, 17.9,40, 40,40c 22.16,0, 40-17.82, 40-40c0-22.040-17.84-40-40-40C 297.9-32, 280-14.040, 280,8zM 480,88A40,40 1620 1 1 560,88A40,40 1620 1 1 480,88zM 600,248c-22.080,0-40,17.92-40,40c0,22.14, 17.92,40, 40,40s 40-17.86, 40-40C 640,265.92, 622.080,248, 600,248zM 480,488A40,40 1620 1 1 560,488A40,40 1620 1 1 480,488z" horiz-adv-x="638.75"  />
<glyph unicode="&#xe005;" d="M 245.333,490.667l0-192.021 l 160.203,96.011L 245.333,490.667z M 373.333,213.333L 160,213.333 l0-42.667 l 181.333,0 l-42.667-53.333L 160,117.333 l0-42.667 l 106.667,0 l-53.333-74.667l-85.088,0 C 110.443,0, 96,14.443, 96,32.256L 96,533.077 
		C 96,550.891, 110.443,565.333, 128.245,565.333l 372.832,0 C 518.891,565.333, 533.333,550.891, 533.333,533.077L 533.333,426.667 L 373.333,213.333zM 278.667,0L 533.333,348L 533.333,21.333 c0-10.667-8-21.333-20-21.333L 278.667,0 z"  />
<glyph unicode="&#xe006;" d="M 533.333,32.256C 533.333,14.443, 518.891,0, 501.088,0L 128.245,0 C 110.443,0, 96,14.443, 96,32.256L 96,533.077 C 96,550.891, 110.443,565.333, 128.245,565.333l 372.832,0 
		C 518.891,565.333, 533.333,550.891, 533.333,533.077L 533.333,32.256 z M 245.333,490.667l0-192.021 l 160.203,96.011L 245.333,490.667z M 480,213.333L 160,213.333 l0-42.667 l 320,0 L 480,213.333 z M 480,117.333L 160,117.333 l0-42.667 l 320,0 L 480,117.333 z"  />
<glyph unicode="&#xe007;" d="M 48,380.277L 378.283,380.277L 378.283,50.005L 48,50.005zM 571.093,528.331L 263.573,528.331L 63.861,425.835L 394.144,425.835 	zM 594.667,487.659L 423.829,381.088L 423.829,61.803L 594.667,179.755 	z"  />
<glyph unicode="&#xe008;" d="M 37.92,157.749L 46.88,136.245L 102.080,138.848L 77.568,197.643 				zM 381.472,278.699L 372.448,300.192L 317.333,297.589L 341.824,238.795 				zM 147.893,389.472L 126.443,380.512L 129.013,325.301L 187.819,349.835 				zM 268.832,45.931L 290.293,54.763L 287.808,110.037L 228.96,85.536 				zM 44.149,296.384L 35.317,274.837L 76.203,237.664L 100.352,296.64 				zM 372.661,138.944L 381.472,160.523L 340.672,197.685L 316.363,138.837 				zM 287.093,381.92L 265.568,390.752L 228.395,349.845L 287.264,325.685 				zM 129.685,53.408L 151.189,44.565L 188.384,85.397L 129.493,109.685 				zM 262.283,88.448c-71.381-29.749-153.397,3.947-183.136,75.349c-29.771,71.381, 4.021,153.323, 75.424,183.147
					c 71.317,29.707, 153.28-4.021, 183.040-75.392C 367.339,200.171, 333.653,118.219, 262.283,88.448z M 255.051,237.131
					c-10.784,25.685-40.373,37.931-66.101,27.168c-25.717-10.763-37.888-40.267-27.189-66.091c 10.699-25.717, 40.288-37.867, 66.123-27.168
					C 253.493,181.845, 265.728,211.349, 255.051,237.131zM 582.592,544L 251.413,544L 36.32,426.667L 392.021,426.667 		zM 608,494.965L 426.667,380.192L 426.667,36.309L 608,163.339 		z"  />
<glyph unicode="&#xe009;" d="M 64,544L 170.667,544L 170.667,32L 64,32zM 576,213.333L 245.333,213.333L 245.333,544 zM 64,138.667L 576,138.667L 576,32L 64,32z"  />
<glyph unicode="&#xe00a;" d="M 468.8,335.584c-72.96,157.024-110.88,216.672-230.112,214.176c-42.464-0.864-32.256,30.752-64.64,18.752
		C 141.696,556.544, 169.472,538.976, 136.352,511.808c-92.864-76.224-84.32-146.752-41.248-314.88c 18.176-70.784-43.744-74.272-19.264-142.912
		c 17.888-50.016, 149.728-71.008, 288.832-19.36c 139.104,51.584, 226.88,154.016, 208.992,204.096C 549.184,307.36, 499.552,269.472, 468.8,335.584z M 349.568,76.928
		c-124.192-46.080-226.304-18.976-230.624-6.944c-7.424,20.768, 40.096,90.112, 182.112,142.816c 142.016,52.704, 221.28,33.152, 229.568,9.952
		C 535.52,209.056, 473.824,123.040, 349.568,76.928z M 309.664,188.736c-64.96-24.096-110.080-51.648-139.296-76.48
		c 20.576-18.688, 59.072-23.232, 97.472-8.992c 48.864,18.144, 78.88,59.776, 67.008,92.96c-0.128,0.416-0.352,0.768-0.512,1.152
		C 326.336,194.784, 318.112,191.904, 309.664,188.736z"  />
<glyph unicode="&#xe00b;" d="M 551.136,383.072c-50.656,117.92-132.224,207.712-173.472,190.912c-70.048-28.48, 41.76-165.248-302.272-305.088
	c-29.728-12.064-37.248-60.416-24.8-89.312c 12.416-28.896, 53.056-57.664, 82.784-45.6c 5.12,2.080, 24.032,8.16, 24.032,8.16
	c 21.216-28.48, 43.424-11.584, 51.328-29.696c 9.472-21.76, 30.048-69.024, 37.024-85.088c 7.040-16.064, 22.912-30.976, 34.432-26.592
	c 11.456,4.384, 50.592,19.296, 65.568,24.96s 18.56,19.040, 13.984,29.568c-4.928,11.328-25.152,14.656-30.912,27.904
	c-5.792,13.248-24.64,55.648-30.048,69.024c-7.36,18.176, 8.288,32.96, 31.040,35.328c 156.608,16.32, 185.888-80.416, 239.2-58.72
	C 610.176,145.664, 601.792,265.152, 551.136,383.072z M 533.504,191.808c-9.152-3.712-70.784,44.864-110.176,136.544
	c-39.36,91.648-34.4,175.424-25.28,179.136c 9.152,3.744, 69.28-54.912, 108.672-146.56C 546.048,269.312, 542.656,195.52, 533.504,191.808z"  />
<glyph unicode="&#xe00c;" d="M 379.541,419.915l 13.941-80.672l-72.608,38.133l-72.597-38.133l 13.931,80.672l-58.667,57.195l 81.035,11.733l 36.299,73.333l 36.299-73.333
		l 81.045-11.733L 379.541,419.915zM 379.541,99.915l 13.941-80.672l-72.608,38.123l-72.597-38.123l 13.931,80.672l-58.667,57.184l 81.035,11.733l 36.299,73.344l 36.299-73.344
		l 81.045-11.733L 379.541,99.915zM 597.333,0l-85.333,0 L 512,576 l 85.333,0 L 597.333,0 z M 530.667,131.563c0-12.768, 10.347-23.115, 23.115-23.115c 12.757,0, 23.115,10.347, 23.115,23.115
	c0,12.757-10.357,23.104-23.115,23.104C 541.013,154.667, 530.667,144.32, 530.667,131.563z M 530.667,291.563c0-12.768, 10.347-23.115, 23.115-23.115
	c 12.757,0, 23.115,10.347, 23.115,23.115c0,12.757-10.357,23.104-23.115,23.104C 541.013,314.667, 530.667,304.32, 530.667,291.563z M 530.667,462.219
	c0-12.768, 10.347-23.115, 23.115-23.115c 12.757,0, 23.115,10.336, 23.115,23.115c0,12.768-10.357,23.115-23.115,23.115
	C 541.013,485.333, 530.667,474.987, 530.667,462.219zM 128,0L 42.667,0 L 42.667,576 l 85.333,0 L 128,0 z M 61.333,131.563c0-12.768, 10.347-23.115, 23.115-23.115c 12.757,0, 23.115,10.347, 23.115,23.115
	c0,12.757-10.357,23.104-23.115,23.104C 71.68,154.667, 61.333,144.32, 61.333,131.563z M 61.333,291.563c0-12.768, 10.347-23.115, 23.115-23.115
	c 12.757,0, 23.115,10.347, 23.115,23.115c0,12.757-10.357,23.104-23.115,23.104C 71.68,314.667, 61.333,304.32, 61.333,291.563z M 61.333,462.219
	c0-12.768, 10.347-23.115, 23.115-23.115c 12.757,0, 23.115,10.336, 23.115,23.115c0,12.768-10.357,23.115-23.115,23.115
	C 71.68,485.333, 61.333,474.987, 61.333,462.219z"  />
<glyph unicode="&#xe00d;" d="M 640,88L 640,568 L0,568 l0-480 l 280,0 l0-40 l-120,0 l0-40 l 320,0 l0,40 l-120,0 l0,40 L 640,88 z M 80,488l 480,0 l0-320 L 80,168 L 80,488 z"  />
<glyph unicode="&#xe00e;" d="M 640,431.437L 583.434,488L 471.718,376.28L 408.28,439.719L 519.999,551.437L 463.436,608L 351.718,496.281L 280,568L 225.859,513.86L 545.86,193.859L 600,247.999L 528.28,319.719 	zM 171.718,139.716c 103.605-103.601, 240.746-22.726, 324.558,47.165L 218.885,464.271
		C 148.995,380.461, 68.118,243.32, 171.718,139.716zM 119.999,167.998L 199.995,88L 80-31.995L 0.003,48.001z"  />
<glyph unicode="&#xe00f;" d="M 42.667,341.333L 597.333,341.333L 597.333,224L 42.667,224zM 501.333,32L 138.667,32 L 138.667,533.333 l 362.667,0 L 501.333,32 z M 236.704,486.667c-24.928,0-45.152-20.224-45.152-45.152s 20.224-45.152, 45.152-45.152s 45.152,20.224, 45.152,45.152
			S 261.643,486.667, 236.704,486.667z M 393.067,486.667c-24.939,0-45.141-20.224-45.141-45.152s 20.213-45.152, 45.141-45.152
			c 24.949,0, 45.152,20.224, 45.152,45.152S 418.005,486.667, 393.067,486.667z"  />
<glyph unicode="&#xe010;" d="M 216.128,367.061c-22.709-24.469-36.597-57.237-36.597-93.259c0-75.723, 61.387-137.12, 137.131-137.12
	s 137.131,61.408, 137.131,137.12c0,37.685-15.2,71.819-39.797,96.608l 64.288,61.835c 46.656-42.805, 75.915-104.277, 75.915-172.597
	c0-129.301-104.853-234.155-234.165-234.155c-129.333,0-234.165,104.853-234.165,234.155c0,70.037, 30.731,132.885, 79.456,175.787L 216.128,367.061zM 408.405,436.896L 256,563.552L 256,310.219 z"  />
<glyph unicode="&#xe011;" d="M 389.312,331.733l0-51.723 L 255.147,280.011 L 255.147,331.733 L 389.312,331.733 zM 109.461,394.197l-52.128,34.464l 161.035,40.565l 6.304-151.232l-39.68,26.24c-3.552-12.203-5.451-25.099-5.461-38.443
	c0-75.723, 61.387-137.12, 137.131-137.12s 137.131,61.408, 137.131,137.12c0,37.685-15.2,71.819-39.797,96.608l 64.288,61.835
	c 46.656-42.805, 75.915-104.277, 75.915-172.597c0-129.301-104.853-234.155-234.165-234.155c-129.333,0-234.165,104.853-234.165,234.155
	C 85.867,328.427, 94.347,363.221, 109.461,394.197z"  />
<glyph unicode="&#xe012;" d="M 335.712,192.459c-27.2,0-45.675,20-45.675,46.688c0,27.712, 18.976,46.688, 46.176,46.688c 27.189,0, 45.163-18.976, 45.664-46.688
		c0-26.688-17.984-46.688-45.664-46.688L 335.712,192.459 z M 306.965,336.416L 295.68,554.667l 81.067,0 L 365.44,336.416L 306.965,336.416 zM 130.795,340.864l-52.128,34.464l 161.035,40.565l 6.304-151.232l-39.68,26.24c-3.552-12.203-5.451-25.099-5.461-38.443
	c0-75.723, 61.387-137.12, 137.131-137.12s 137.131,61.408, 137.131,137.12c0,37.685-15.2,71.819-39.797,96.608l 64.288,61.835
	c 46.656-42.805, 75.915-104.277, 75.915-172.597c0-129.301-104.853-234.155-234.155-234.155c-129.344,0-234.176,104.853-234.176,234.155
	C 107.2,275.083, 115.68,309.888, 130.795,340.864z"  />
<glyph unicode="&#xe013;" d="M 164.267,316.533c-6.091-13.6-6.816-29.355-6.816-45.056c0-83.669, 67.829-151.499, 151.52-151.499c 83.648,0, 151.488,67.829, 151.488,151.499
	c0,83.68-67.829,151.509-151.488,151.509l-1.472,77.12c 2.421,0.075, 4.853,0.117, 7.285,0.117c 123.627,0, 223.872-100.235, 223.872-223.904
	c0-123.637-100.245-223.883-223.872-223.883c-123.669,0-223.904,100.245-223.904,223.883c0,19.744, 1.611,39.168, 7.349,57.12
	c 2.88,8.992, 8.949,20.48, 8.949,20.48l-84.523,39.403l 178.581,47.829l 50.859-159.627l-83.723,41.824C 168.384,323.36, 165.088,318.347, 164.267,316.533z"  />
<glyph unicode="&#xe014;" d="M 445.973,533.333L 200.021,533.333 c-18.869,0-21.504-15.189-21.504-15.189L 79.584,224l 487.541,0 L 467.787,519.371C 467.787,519.371, 462.645,533.333, 445.973,533.333zM 555.52,53.333L 91.189,53.333 c-20.512,23.221-32.128,106.667-11.605,128l 487.541,0 C 587.648,160, 576.032,76.555, 555.52,53.333z M 493.12,85.237
		c 17.909,0, 32.416,14.507, 32.416,32.405c0,17.909-14.507,32.427-32.416,32.427c-17.899,0-32.405-14.517-32.405-32.427
		C 460.715,99.755, 475.232,85.237, 493.12,85.237z M 388.661,85.237c 17.899,0, 32.405,14.507, 32.405,32.405c0,17.909-14.507,32.427-32.405,32.427
		c-17.909,0-32.416-14.517-32.416-32.427C 356.235,99.755, 370.752,85.237, 388.661,85.237z"  />
<glyph unicode="&#xf0001;" d="M 574.368,134.528L 574.368,208 c0,44.384-29.376,110.4-110.368,110.4l-64,0 c-45.184,0-49.376,22.144-49.6,33.6L 350.4,441.472 
	C 377.696,453.28, 396.8,480.416, 396.8,512c0,42.4-34.368,76.8-76.8,76.8C 277.568,588.8, 243.2,554.4, 243.2,512c0-31.584, 19.104-58.72, 46.4-70.528L 289.6,352 
	c0-8.288-2.4-33.6-49.6-33.6l-64,0 c-80.992,0-110.4-66.016-110.4-110.4l0-73.472 C 38.304,122.752, 19.2,95.584, 19.2,64c0-42.4, 34.368-76.8, 76.8-76.8
	c 42.4,0, 76.8,34.4, 76.8,76.8c0,31.584-19.104,58.752-46.4,70.528L 126.4,208 c0,8.288, 2.4,49.6, 49.6,49.6l 64,0 c 19.424,0, 35.808,2.944, 49.6,7.936
	l0-131.008 C 262.304,122.752, 243.2,95.584, 243.2,64c0-42.4, 34.368-76.8, 76.8-76.8c 42.432,0, 76.8,34.4, 76.8,76.8c0,31.584-19.136,58.752-46.432,70.528
	l0,131.008 c 13.792-4.992, 30.176-7.936, 49.6-7.936l 64,0 c 45.184,0, 49.376-38.144, 49.632-49.6l0-73.472 C 486.304,122.752, 467.2,95.584, 467.2,64
	c0-42.4, 34.368-76.8, 76.8-76.8s 76.8,34.4, 76.8,76.8C 620.8,95.584, 601.696,122.752, 574.368,134.528z M 140.32,64c0-24.48-19.84-44.32-44.32-44.32
	S 51.68,39.52, 51.68,64S 71.52,108.32, 96,108.32S 140.32,88.48, 140.32,64z M 275.68,512c0,24.48, 19.872,44.32, 44.32,44.32
	c 24.448,0, 44.288-19.84, 44.288-44.32S 344.448,467.68, 320,467.68C 295.552,467.68, 275.68,487.52, 275.68,512z M 364.32,64
	c0-24.48-19.872-44.32-44.288-44.32c-24.48,0-44.32,19.84-44.32,44.32S 295.552,108.32, 320,108.32C 344.448,108.32, 364.32,88.48, 364.32,64z
	 M 544,19.68c-24.448,0-44.32,19.84-44.32,44.32s 19.872,44.32, 44.32,44.32s 44.32-19.84, 44.32-44.32S 568.448,19.68, 544,19.68z"  />
<glyph unicode="&#xe015;" d="M 359.264,550.4c-142.272,0-257.952-113.984-261.408-255.84L 19.2,294.56 l 117.728-131.232l 117.696,131.232L 163.232,294.56 C 166.688,400.192, 253.088,484.8, 359.264,484.8
	c 108.352,0, 196.16-88.096, 196.16-196.8s-87.808-196.8-196.16-196.8c-43.456,0-83.584,14.208-116.096,38.176l-44.992-48.128
	C 242.592,46.4, 298.496,25.6, 359.264,25.6c 144.448,0, 261.568,117.472, 261.568,262.4C 620.8,432.928, 503.68,550.4, 359.264,550.4z M 336,428.8l0-150.080 l 96.16-96.16
	l 31.68,31.68L 380.8,297.28L 380.8,428.8 L 336,428.8 z"  />
<glyph unicode="&#xe016;" d="M 260.096,166.336c-22.080-38.272-7.232-69.76, 23.392-87.424s 65.344-14.848, 87.424,23.424c 22.080,38.24, 161.504,379.712, 149.376,386.72
	C 508.192,496.064, 282.176,204.608, 260.096,166.336z M 320,409.536c 14.016,0, 27.68-1.216, 40.992-3.456c 14.016,17.536, 29.728,36.864, 44.992,55.264
	C 378.72,469.248, 349.952,473.536, 320,473.536c-179.424,0-320-151.296-320-344.448c0-11.904, 0.544-23.776, 1.568-35.36
	c 1.568-17.6, 17.28-30.56, 34.72-29.024c 17.6,1.6, 30.592,17.12, 29.024,34.72C 64.448,109.12, 64,119.104, 64,129.088
	C 64,286.336, 176.48,409.536, 320,409.536z M 551.008,369.568c-8.928-24-18.368-48.448-26.688-69.6C 556.864,252.928, 576,193.952, 576,129.088
	c0-10.144-0.448-20.352-1.344-30.24c-1.6-17.6, 11.36-33.152, 28.96-34.784c 0.992-0.096, 1.952-0.128, 2.944-0.128
	c 16.352,0, 30.304,12.512, 31.808,29.088C 639.456,104.864, 640,116.992, 640,129.088C 640,223.52, 606.336,307.936, 551.008,369.568z"  />
<glyph unicode="&#x2e;" d="M 48.16,60.224A36.608,36.608 180 1 1 121.376,60.224000000000046A36.608,36.608 180 1 1 48.16,60.224000000000046z" horiz-adv-x="160"  />
<glyph unicode="&#xf0002;" d="M 637.904-32L 7.6-32 L 7.6,594.672 l 102.8,0 l 0.704-55.664l 95.744,0 l-0.064,55.664l 232.192,0 l0-55.12 l 99.728-0.304l 1.552,55.408l 97.664,0 
	L 637.92-32 z M 355.072,145.456c 3.472,68.752, 56.24,92.144, 82.432,152.752c 33.6,77.664-13.232,143.104-76.64,150.816c-118.528,14.448-162.336-30.912-160.8-154.608
	l 72.672,0 c0,0-13.904,98.96, 66.496,94.32c 77.44-4.464, 63.392-98.4-4.656-142.272c-47.936-30.912-43.664-62.048-44.048-100.72L 355.072,145.456z
	 M 351.6,86.448l-62.992,0 l-0.384-56.432l 63.376,0 L 351.6,86.448 z"  />
<glyph unicode="&#xe017;" d="M 508.656,332.288c0-55.744-11.216-96.608-43.28-137.2l 125.84-143.664L 528.432-16l-147.024,137.408
	c-34.496-19.44-68.656-27.44-111.072-27.44C 138.704,93.968, 32,200.656, 32,332.288C 32,463.904, 138.704,570.608, 270.336,570.608
	C 401.936,570.608, 508.656,463.904, 508.656,332.288z M 267.328,504.496c-94.992,0-172-77.008-172-171.984c0-94.976, 77.008-171.984, 172-171.984
	c 94.976,0, 171.984,77.008, 171.984,171.984C 439.312,427.488, 362.32,504.496, 267.328,504.496z"  />
<glyph unicode="&#xe018;" d="M 389.783,27.055l-346.473,0 l0,346.473 l 346.473,0 L 389.783,27.055 z M 124.148,304.233l0-219.439 l 188.998,115.491L 124.148,304.233zM 609.873,546.769L 265.926,546.769L 49.524,419.724L 407.401,419.724 	zM 620.765,492.020L 447.535,380.381L 447.535,30.58L 620.765,169.111 	z" horiz-adv-x="674.909"  />
<glyph unicode="&#xe019;" d="M 570.961,167.82c0,8.937-3.491,11.555-12.148,11.555l-438.865,0 c-11.555,0-16.721-4.945-16.721-14.569L 103.226,52.329 c0-8.308, 4.212-11.555, 12.881-11.555l 443.311,0 
	c 7.098,0, 11.555,3.724, 11.555,14.313L 570.961,167.82 zM 114.781,248.657l 444.637,0 c 5.19,0, 7.575,3.619, 5.19,7.273L 328.436,525.836L 110.313,257.094C 105.565,251.194, 109.719,248.657, 114.781,248.657z" horiz-adv-x="674.909"  />
<glyph unicode="&#xf0003;" d="M 48.562,447.334c0,21.969, 7.549,31.882, 30.707,31.882L 424.098,479.216 l 50.638,72.229l 227.788,0 c 16.183,0, 17.802-14.184, 17.802-27.115l0-485.603 
	c0-24.829-11.337-35.605-35.069-35.605L 84.989,3.109 c-19.148,0-36.428,5.394-36.428,32.379L 48.562,447.334 z M 388.924,160.562L 209.476,160.562 l0-95.726 l 358.909,0 l0,95.726 L 388.924,160.562 z
	 M 544.47,112.705L 496.614,112.705 l0,23.928 l 47.843,0 L 544.47,112.705 z M 424.842,256.261L 424.842,399.843 l-71.798,0 l0-143.569 l-59.82,0 l 95.713-94.315l 95.726,94.315L 424.842,256.261 z" horiz-adv-x="757.551"  />
<glyph unicode="&#xe01a;" d="M 615.083,152.661l0-156.672 L 27.552-4.011 L 27.552,152.661 l 293.771,0 L 615.083,152.661 z M 575.915,113.504l-78.336,0 l0-39.168 l 78.336,0 L 575.915,113.504 zM 504.341,294.304C 468.597,230.101, 400.043,186.667, 321.333,186.667c-77.536,0-145.227,42.155-181.408,104.8l-52.597-26.133l 37.333,144
	l 148-52.672l-58.987-32.96c 22.677-36.651, 63.243-61.077, 109.504-61.077c 45.675,0, 85.781,23.787, 108.619,59.659L 504.341,294.304z M 123.787,465.408
	C 152.416,546.901, 230.048,605.333, 321.333,605.333c 84.512,0, 157.323-50.080, 190.389-122.176l 50.059,24.843l-45.781-137.781l-130.667,45.333l 55.168,28.715
	c-20.192,44.661-65.12,75.733-117.323,75.733c-51.125,0-95.296-29.824-116.053-73.024L 123.787,465.408z"  />
<glyph unicode="&#xe01b;" d="M 578.784,141.856l-258.752-160l-264.555,160L 55.477,419.829 l 264.533,160l 258.784-160L 578.795,141.856 z M 152.939,173.173
	c 14.027-12.256, 31.691-18.389, 52.992-18.389c 22.475,0, 41.269,7.275, 56.363,21.835s 22.645,32.171, 22.645,52.832c0,14.24-4.043,26.389-12.128,36.448
	s-18.869,16.544-32.352,19.435c 22.581,12.309, 33.877,28.8, 33.877,49.461c0,14.56-5.515,27.616-16.533,39.179c-13.387,14.133-31.157,21.195-53.323,21.195
	c-12.949,0-24.651-2.432-35.083-7.307c-10.443-4.875-18.581-11.552-24.416-20.075c-5.835-8.512-10.197-19.883-13.088-34.123l 41.589-7.072
	c 1.173,10.272, 4.491,18.091, 9.952,23.445c 5.461,5.344, 12.043,8.021, 19.755,8.021c 7.808,0, 14.069-2.357, 18.784-7.061
	c 4.704-4.715, 7.072-11.029, 7.072-18.955c0-9.312-3.211-16.779-9.632-22.4c-6.421-5.621-15.744-8.267-27.947-7.947l-4.981-36.768
	c 8.032,2.251, 14.933,3.371, 20.715,3.371c 8.779,0, 16.224-3.328, 22.315-9.963c 6.101-6.645, 9.152-15.637, 9.152-26.976
	c0-11.989-3.189-21.525-9.557-28.587s-14.208-10.603-23.531-10.603c-8.672,0-16.053,2.944-22.165,8.832c-6.101,5.888-9.845,14.4-11.243,25.536
	l-43.68-5.291C 130.784,201.461, 138.912,185.429, 152.939,173.173z M 322.837,158.805l 89.44,0 c 17.557,0, 31.584,1.653, 42.080,4.981
	c 14.016,4.501, 25.141,10.763, 33.397,18.795c 10.912,10.592, 19.339,24.459, 25.205,41.579c 4.811,14.016, 7.232,30.731, 7.232,50.101
	c0,22.048-2.56,40.597-7.712,55.637s-12.629,27.755-22.475,38.144c-9.856,10.379-21.685,17.611-35.477,21.675
	c-10.293,2.997-25.227,4.491-44.811,4.491l-86.88,0 L 322.837,158.805 z M 391.733,354.389c 19.371,0, 32.373-0.747, 39.019-2.251
	c 8.875-1.931, 16.213-5.621, 22.005-11.083c 5.771-5.461, 10.272-13.067, 13.483-22.805c 3.211-9.749, 4.811-23.712, 4.811-41.909
	c0-18.208-1.6-32.587-4.811-43.125s-7.349-18.112-12.437-22.72s-11.477-7.861-19.189-9.792c-5.899-1.515-15.477-2.251-28.747-2.251l-35.477,0 
	L 370.389,354.389 L 391.733,354.389 z" />
<glyph unicode="&#xe01c;" d="M 339.424,211.061l0-46.283 L 164.768,164.779 c 1.888,17.493, 7.563,34.069, 17.024,49.739c 9.451,15.659, 28.128,36.437, 56.032,62.325
		c 22.453,20.928, 36.224,35.115, 41.312,42.56c 6.859,10.283, 10.283,20.448, 10.283,30.496c0,11.115-2.987,19.648-8.949,25.621
		c-5.973,5.963-14.219,8.949-24.736,8.949c-10.4,0-18.677-3.136-24.821-9.397c-6.155-6.272-9.696-16.672-10.645-31.211l-49.643,4.96
		c 2.955,27.424, 12.235,47.104, 27.84,59.051c 15.605,11.936, 35.104,17.909, 58.507,17.909c 25.653,0, 45.803-6.912, 60.459-20.747
		c 14.667-13.824, 21.995-31.029, 21.995-51.595c0-11.701-2.101-22.848-6.304-33.419c-4.203-10.581-10.848-21.664-19.947-33.248
		c-6.027-7.691-16.907-18.741-32.629-33.152c-15.723-14.432-25.685-24-29.877-28.715c-4.203-4.736-7.595-9.344-10.197-13.835L 339.424,211.072 zM 383.925,424.725l 95.925,0 c 21.632,0, 38.123-1.653, 49.472-4.96c 15.253-4.491, 28.309-12.469, 39.189-23.936
		c 10.88-11.467, 19.157-25.504, 24.821-42.112c 5.675-16.608, 8.523-37.088, 8.523-61.44c0-21.397-2.667-39.829-7.979-55.328
		c-6.507-18.912-15.776-34.219-27.84-45.931c-9.109-8.864-21.397-15.776-36.885-20.736c-11.584-3.669-27.061-5.504-46.443-5.504l-98.773,0 L 383.936,424.725 z
		 M 436.416,380.747l0-172.181 l 39.189,0 c 14.656,0, 25.227,0.832, 31.744,2.485c 8.512,2.123, 15.573,5.728, 21.184,10.816s 10.197,13.451, 13.739,25.099
		c 3.552,11.637, 5.323,27.509, 5.323,47.605c0,20.096-1.771,35.52-5.323,46.283c-3.541,10.752-8.512,19.147-14.891,25.173
		c-6.389,6.027-14.475,10.112-24.288,12.235c-7.339,1.653-21.685,2.485-43.083,2.485L 436.416,380.747 zM 588.448,7.104L 51.552,7.104 c-21.333,0-21.333,20.448-21.333,20.448L 30.219,540.448 l 78.219,32l0-496 l 480,0 L 588.437,7.104 z" />
<glyph unicode="&#xe01e;" d="M 238.283,312.555c-12.032-9.504-19.115-21.152-19.115-33.771c0-31.979, 45.472-57.877, 101.568-57.877
	c 56.128,0, 101.589,25.899, 101.589,57.877c0,19.456-16.885,36.672-42.773,47.147l 21.109,28.352l 107.627,0 l 102.112-153.365L 30.667,200.917 l 102.112,153.365l 61.888,0 
	L 238.283,312.555zM 581.941,188.352L 58.357,188.352L 30.667,141.291L 610.411,141.291 zM 582.72,128.736L 59.125,128.736L 30.667,81.675L 610.411,81.675 zM 581.941,69.109L 58.357,69.109L 30.667,22.048L 610.411,22.048 zM 177.781,392L 310.219,261.333L 503.563,527.712L 450.667,565.333L 301.333,361.333L 204,449.333 z"  />
<glyph unicode="&#xe01f;" d="M 610.421,243.595L 30.667,243.595 l 102.112,153.365l 375.509,0 L 610.421,243.595z M 414.347,343.957
	c-15.413,20.757-51.509,35.317-93.611,35.317c-42.059,0-78.144-14.549-93.568-35.285 M 219.552,316.427c 4.469-29.621, 48.064-52.843, 101.184-52.843
	c 53.163,0, 96.747,23.243, 101.216,52.853L 219.552,316.427zM 581.397,224.352L 57.813,224.352L 30.123,177.291L 609.867,177.291 zM 582.176,164.736L 58.592,164.736L 30.123,117.675L 609.867,117.675 zM 581.397,105.109L 57.813,105.109L 30.123,58.048L 609.867,58.048 z"  />
<glyph unicode="&#xe020;" d="M 360.146,427.206L 511.841,478.101L 639.081,98.861L 487.386,47.966zM0,48l 160,0 L 160,488 L0,488 L0,48 z M 40,408l 80,0 l0-40 L 40,368 L 40,408 zM 200,48l 160,0 L 360,488 L 200,488 L 200,48 z M 240,408l 80,0 l0-40 l-80,0 L 240,408 z"  />
<glyph unicode="&#xe021;" d="M 640,248l0,40 l-120.806,0 c-3.664,45.429-19.866,86.891-44.794,120.156l 101.215,0 l 43.788,175.15l-38.806,9.701l-36.212-144.85l-109.175,0 
	c-0.557,0.434-1.123,0.859-1.686,1.285c 4.194,12.189, 6.476,25.264, 6.476,38.871C 440,554.414, 386.275,608, 320,608s-120-53.586-120-119.688
	c0-13.607, 2.281-26.683, 6.476-38.871c-0.563-0.428-1.127-0.851-1.686-1.285l-109.175,0 l-36.212,144.85l-38.806-9.701l 43.788-175.15l 101.215,0 
	C 140.671,374.891, 124.47,333.429, 120.806,288L0,288 l0-40 l 120.856,0 c 2.376-28.54, 9.692-55.508, 21.024-79.844L 64.385,168.156 l-43.788-175.149
	l 38.806-9.702l 36.212,144.851l 70.221,0 C 202.52,79.386, 257.96,48.312, 320,48.312s 117.479,31.074, 154.164,79.844l 70.221,0 l 36.212-144.851
	l 38.806,9.702l-43.788,175.149l-77.495,0 c 11.331,24.336, 18.648,51.304, 21.023,79.844L 640,248 z"  />
<glyph unicode="&#xe022;" d="M 547.083,13.205L 86.517,13.205 L 86.517,412.32 L 234.667,412.32 L 86.517,542.667l 131.008-7.115l 95.808-123.243l 14.667,0 L 394.667,534.667l 162.667,8
	l-165.333-130.347l 155.083,0 L 547.083,13.205 z M 181.216,385.717l-50.048,0 l0-334.496 l 50.048,0 L 181.216,385.717 z M 285.685,385.717l-50.048,0 l0-334.496 l 50.048,0 L 285.685,385.717 z
	 M 390.144,385.717l-50.037,0 l0-334.496 l 50.037,0 L 390.144,385.717 z M 494.613,385.717l-50.037,0 l0-334.496 l 50.037,0 L 494.613,385.717 z"  />
<glyph unicode="&#xe023;" d="M 348.213,137.621l-64.843,0 l-25.781,67.061L 139.595,204.683 l-24.373-67.061L 52,137.621 l 114.976,295.2l 63.029,0 L 348.213,137.621z M 238.464,254.421
		l-40.672,109.536l-39.872-109.536L 238.464,254.421 zM 354.251,137.621l0,53.76 l 155.051,191.499L 371.776,382.88 l0,49.941 l 216.053,0 l0-46.315 L 426.123,187.349l 167.947,0 l0-49.728 L 354.251,137.621 z"  />
<glyph unicode="&#xe01d;" d="M 570.891,287.413c0-136.608-110.752-247.371-247.36-247.371c-136.619,0-247.371,110.773-247.371,247.371
	c0,136.619, 110.752,247.36, 247.371,247.36C 460.149,534.784, 570.891,424.032, 570.891,287.413z M 534.656,246.581
	c 2.517,13.237, 3.851,26.901, 3.851,40.928c0,13.365-1.216,26.443-3.52,39.168l-426.763-0.011c-2.315-12.715-3.52-25.781-3.52-39.157
	c0-14.016, 1.333-27.691, 3.861-40.928L 534.656,246.581 z"  />
<glyph unicode="&#xf0004;" d="M 614.997,133.003c0-12.395-9.419-22.443-21.056-22.443L 45.824,110.56 c-11.616,0-21.045,10.048-21.045,22.443L 24.779,463.915 
	c0,12.405, 9.419,22.453, 21.045,22.453l 548.117,0 c 11.637,0, 21.056-10.048, 21.056-22.453L 614.997,133.003 zM 227.52,421.376L 227.52,182.677L 450.336,302.027 z"  />
<glyph unicode="&#xe027;" d="M 151.179,116.661L 321.845,116.651L 321.845,22.251L 48.672,22.251L 48.672,561.099L 321.845,561.099L 321.845,474.667L 151.179,474.432 zM 225.845,347.776L 532.885,347.776L 532.885,250.795L 225.845,250.795z"  />
<glyph unicode="&#xe028;" d="M 364.512,105.995L 535.179,105.984L 535.179,11.584L 112.672,11.584L 112.672,105.333L 262.005,105.984L 262.005,464L 102.005,464L 102.005,550.432L 535.179,550.432L 535.179,464L 364.512,463.765 zM 415.627,337.109L 605.333,337.109L 605.333,240.128L 415.627,240.128zM 21.333,337.109L 211.040,337.109L 211.040,240.128L 21.333,240.128z"  />
<glyph unicode="&#xe029;" d="M 355.061,221.952c0,0, 8.757-149.451, 21.515-157.76c 16.693-10.88, 210.091,0, 210.091,0l-16.491,80.544
	c0,0-97.899-6.027-106.475,2.741c-4.597,4.693-10.453,64.16-11.947,85.749c-1.461,20.971-1.547,63.104,0,84.064
	c 1.493,20.405, 4.331,74.976, 11.947,80.971c 10.528,8.299, 103.179-0.683, 103.179-0.683L 586.667,486.315c0,0-195.253,13.952-209.472,0
	c-12.341-12.107-22.133-157.771-22.133-157.771l-106.688,0.064c-19.275,35.221-56.683,59.115-99.68,59.115c-62.699,0-113.525-50.837-113.525-113.536
	c0-62.709, 50.827-113.547, 113.525-113.547c 43.861,0, 81.92,24.875, 100.832,61.28L 355.061,221.952z"  />
<glyph unicode="&#xe02a;" d="M 254.112,40.789c 12.576-23.541, 37.387-39.552, 65.941-39.552c 28.779,0, 53.749,16.267, 66.229,40.128l 17.717-0.48l 124.437,0 
	l0,72 L 404.896,112.885 l-19.467-0.725c-4.971,8.949-11.723,16.779-19.776,22.987l 0.576,55.595l 190.443,0 c 13.024,0, 13.024,13.931, 13.024,13.931l0,320 
	c0,15.339-15.691,15.339-15.691,15.339L 395.072,540.011 l-27.819-53.333L 80.971,486.677 c0,0-10.667-0.011-10.667-11.349L 70.304,200 c0,0,0-9.259, 14.357-9.259L 272,190.741 l 0.8-56.907
	c-6.965-5.685-12.885-12.619-17.419-20.427l-18.048-0.523L 111.552,112.885 l0-72 l 124,0 L 254.112,40.789z"  />
<glyph unicode="&#xe02b;" d="M 486.96,247.52c-1.64-3.8-6.24-5.76-13.84-5.76L 429.2,241.76 l0-160.88 c0-7.080-1-12.36-2.88-15.84
		c-1.88-3.56-6.32-5.28-13.28-5.28L 306.48,59.76 L 306.48,220.68 L 200.8,220.68 l0-160.92 L 99.16,59.76 c-6.52,0-11.36,1.040-14.6,3.2
		c-3.28,2.16-5.16,4.48-5.72,6.92c-0.52,2.48-0.84,6.080-0.84,11L 78,241.8 L 34.16,241.8 c-7.6,0-12.32,1.96-14.2,5.76
		C 18.040,251.32, 19.8,255.92, 25.2,261.32l 208.92,208.92C 239.56,476.2, 246,479.16, 253.64,479.16c 7.56,0, 14.12-3, 19.52-8.92l 208.88-208.92
		C 486.96,255.92, 488.6,251.32, 486.96,247.52zM 330.96,481.040l 29.24,29.28c 5.4,5.96, 11.96,8.96, 19.48,8.96c 7.6,0, 14.12-3, 19.48-8.96l 209-208.92
		c 4.84-5.4, 6.48-16.44, 4.84-20.2c-1.6-3.84-6.24-5.72-13.84-5.72l-43.88,0 l0-165.080 c0-7.040-0.96-12.36-2.88-15.84
		c-1.88-3.52-6.28-5.24-13.36-5.24l-60.040,0 l-0.32,130.56l 30.44,0.64c 25,0, 35.84,37.52, 3.72,70.36L 330.96,481.040z"  />
<glyph unicode="&#xe02c;" d="M 208.832,543.232L 435.888,543.232L 398.496,495.104L 398.672,369.472L 567.632,123.968L 567.792,36L 89.248,36L 89.248,123.968L 244.816,368.496L 245.568,495.28 	z"  />
<glyph unicode="&#xe02d;" d="M 88.885,448L 352,448 l 49.781,56.885L 560,504.885 c 19.563,0, 19.563-15.115, 19.563-15.115l0-397.333 c0-28.437-29.333-28.437-29.333-28.437L 88.885,64 
	C 64,64, 64,88.885, 64,88.885l0,336 C 64,447.115, 88.885,448, 88.885,448z M 470.837,251.371l-137.067,137.067c-3.552,3.904-7.819,5.867-12.8,5.867
	c-4.981,0-9.248-1.963-12.8-5.867l-137.067-137.067c-3.563-3.563-4.715-6.581-3.467-9.077c 1.237-2.485, 4.352-3.733, 9.333-3.733l 28.8,0 l0-105.6 
	c0-3.2, 0.171-5.589, 0.533-7.2c 0.352-1.6, 1.6-3.115, 3.733-4.533c 2.133-1.429, 5.333-2.133, 9.6-2.133l 66.667,0 l0,105.6 l 69.333,0 l0-105.6 l 69.856,0 
	c 4.629,0, 7.563,1.141, 8.811,3.467c 1.227,2.304, 1.856,5.771, 1.856,10.4l0,105.6 l 28.811,0 c 4.981,0, 8,1.237, 9.067,3.733
	S 474.037,247.808, 470.837,251.371z"  />
<glyph unicode="&#xe02e;" d="M 262.096,52.256L 262.096,224.208 L 88.8,224.208 l0,118.688 l 173.312,0 L 262.112,514.864 l 115.552,0 l0-171.968 l 173.744,0 l0-118.688 L 377.664,224.208 l0-171.952 L 262.096,52.256 z"  />
<glyph unicode="&#xe02f;" d="M 280,608L0,608 l0-640 l 480,0 L 480,408.040 L 280,608z M 238.36,368L 238.36,528 l 160-160L 238.36,368 z" horiz-adv-x="480"  />
<glyph unicode="&#xe030;" d="M 320,608C 143.28,608,0,464.72,0,288s 143.28-320, 320-320s 320,143.28, 320,320S 496.72,608, 320,608z M 270.4,140.34
		L 123.16,287.6l 56.56,56.56l 90.66-90.7l 192.34,192.34l 56.56-56.56L 270.4,140.34z"  />
<glyph unicode="&#xe031;" d="M 640,248L 640,488 l-120,0 L 520,528 c0,22-18,40-40,40L 40,568 C 18,568,0,550,0,528l0-120 c0-22, 18-40, 40-40l 440,0 c 22,0, 40,18, 40,40l0,40 l 80,0 
	l0-160 L 240,288 l0-80 l-20,0 c-11.046,0-20-8.954-20-20l0-200 c0-11.046, 8.954-20, 20-20l 80,0 c 11.046,0, 20,8.954, 20,20L 320,188 c0,11.046-8.954,20-20,20l-20,0 l0,40 
	L 640,248 z M 480,488L 40,488 L 40,528 l 440,0 L 480,488 z"  />
<glyph unicode="&#xe032;" d="M 595.563,552.885L 524.608,554.667L 524.608,513.333L 432,513.333L 432,552.885L 206.667,552.885L 205.333,513.333L 117.333,513.333L 117.333,552.885L 48,552.885L 48,414.219L 595.563,414.219 zM 563.563,10.667L 76,10.667 C 48,10.667, 48,44, 48,44L 48,376 l 547.563,0 l0-332 C 595.563,44, 595.563,10.667, 563.563,10.667z M 478.624,143.691
	c 19.029,17.877, 29.163,39.648, 30.4,65.301c 1.237,25.632-6.923,47.435-24.523,65.355c-18.379,19.136-40.064,30.432-65.003,33.877
	c-24.939,3.456-46.624-3.573-65.056-21.056c-10.379-9.952-19.296-21.099-26.752-33.483l-161.611,0.341c-7.349-0.096-13.739-2.613-19.168-7.509
	l-25.227-23.989c-2.219-1.899-3.424-4.331-3.627-7.317c-0.203-2.944, 0.8-5.451, 3.008-7.467l 18.539-19.029
	c 4.715-5.131, 10.763-7.669, 18.101-7.563l 67.904,2.037l 0.448,0.288l 16.885-17.525l 79.381,2.464c 5.717-13.173, 14.101-25.451, 25.152-36.843
	c 16.885-17.515, 37.941-24.629, 63.211-21.344C 435.925,113.557, 458.581,124.693, 478.624,143.691z M 432.021,165.6
	c-2.923-0.203-5.493,0.064-7.691,0.768c-2.219,0.704-4.075,1.536-5.589,2.496c-1.515,0.928-2.699,2.432-3.627,4.448
	c-0.896,2.005-1.621,3.595-2.155,4.736c-0.565,1.163-0.843,3.371-0.843,6.645s 0.021,5.685, 0.107,7.264
	c 0.043,1.557, 0.139,4.341, 0.309,8.352c 0.139,4.032, 0.245,6.944, 0.373,8.768c 0.096,1.803, 0.224,4.715, 0.384,8.747
	c 0.16,4.011, 0.256,6.816, 0.32,8.373c 0.032,1.557, 0.267,3.989, 0.672,7.307c 0.395,3.339, 0.864,5.589, 1.365,6.805
	c 0.512,1.216, 1.355,2.869, 2.592,4.981c 1.163,2.112, 2.507,3.541, 3.979,4.288c 1.461,0.747, 3.36,1.483, 5.728,2.187
	c 2.389,0.704, 5.109,0.992, 8.235,0.896c 12.075,0.181, 22.272-4.032, 30.624-12.64c 8.32-8.608, 12.267-18.944, 11.797-31.029
	c-0.469-12.075-5.301-22.357-14.443-30.859C 454.997,169.685, 444.277,165.504, 432.021,165.6z"  />
<glyph unicode="&#xe033;" d="M 476.164-32C 547.242,96.77, 559.219,293.191, 280,286.64L 280,128 L 40,368L 280,608l0-155.233 
	C 614.351,461.481, 651.606,157.634, 476.164-32z"  />
<glyph unicode="&#xe034;" d="M 576,448L 64,448 C 28.8,448,0,419.2,0,384l0-192 c0-35.2, 28.8-64, 64-64l 512,0 c 35.232,0, 64,28.8, 64,64L 640,384 C 640,419.2, 611.232,448, 576,448z M 576,192L 64,192 L 64,384 l 512,0 L 576,192 z M 544,351.36l-128,0 
			l0-126.688 l 128,0 L 544,351.36 z M 384,351.36L 256,351.36 l0-126.688 l 128,0 L 384,351.36 z M 224,351.36L 96,351.36 l0-126.688 l 128,0 L 224,351.36 z"  />
<glyph unicode="&#xe035;" d="M 576,448L 64,448 C 28.8,448,0,419.2,0,384l0-192 c0-35.2, 28.8-64, 64-64l 512,0 c 35.232,0, 64,28.8, 64,64L 640,384 C 640,419.2, 611.232,448, 576,448z M 576,192L 64,192 L 64,384 l 512,0 L 576,192 z M 384,351.36L 256,351.36 
			l0-126.688 l 128,0 L 384,351.36 z M 224,351.36L 96,351.36 l0-126.688 l 128,0 L 224,351.36 z"  />
<glyph unicode="&#xe036;" d="M 576,448L 64,448 C 28.8,448,0,419.2,0,384l0-192 c0-35.2, 28.8-64, 64-64l 512,0 c 35.232,0, 64,28.8, 64,64L 640,384 C 640,419.2, 611.232,448, 576,448z M 576,192L 64,192 L 64,384 l 512,0 L 576,192 z M 224,351.36L 96,351.36 
			l0-126.688 l 128,0 L 224,351.36 z"  />
<glyph unicode="&#xe037;" d="M 576,448L 64,448 C 28.8,448,0,419.2,0,384l0-192 c0-35.2, 28.8-64, 64-64l 512,0 c 35.2,0, 64,28.8, 64,64L 640,384 C 640,419.2, 611.2,448, 576,448z M 576,192L 64,192 L 64,384 l 512,0 L 576,192 z"  />
<glyph unicode="&#xe038;" d="M 613.728,287.456c0-161.845-131.189-293.035-293.035-293.035c-161.835,0-293.035,131.189-293.035,293.035
	c0,161.835, 131.2,293.035, 293.035,293.035C 482.539,580.491, 613.728,449.291, 613.728,287.456z M 432.363,443.744
	c 59.467,7.104, 91.637,17.589, 91.637,17.589s-2.453,7.104-13.323,15.243c0,0-39.883-5.184-90.827-9.12l 0.768,0.075
	c-31.083,54.752-65.291,85.952-65.291,85.952s-6.667,0.459-14.667,0c0,0, 26.795-35.371, 52.8-87.893l-0.011,0.032
	c-23.872-1.483-48.971-2.496-72.768-2.507c-21.088,0-47.616,1.333-74.261,3.189l0,0c 27.36,54.976, 56.672,87.040, 56.672,87.040
	c-8.949,0.352-16.875-1.461-16.875-1.461c0,0-32.939-29.237-63.499-83.787c-51.52,4.096-97.387,9.259-97.387,9.259
	c-10.059-6.496-12.928-16-12.928-16s 44.405-8.789, 98.613-15.733l-0.096-0.224c-19.904-41.461-36.608-94.336-39.061-157.397l-0.437,0.288
	C 106.667,301.056, 58.005,316.437, 58.005,316.448c-5.557-13.333-0.661-18.272-0.661-18.272s 45.632-23.040, 114.592-41.216l 0.011,0 
	c 3.147-60.565, 24.821-113.429, 47.957-153.483l 0.011-0.011C 158.123,117.643, 110.229,138.667, 110.219,138.667c 12.619-17.12, 23.040-25.557, 23.040-25.557
	s 43.797-22.571, 103.317-36.245l0,0.043c 23.115-34.016, 43.541-53.675, 43.541-53.675s 5.888-1.365, 13.216,2.176c0,0-12.747,17.653-28.821,46.016l0-0.032 
	c 18.016-2.901, 36.96-4.715, 56.181-4.715c 19.104,0, 37.323,1.483, 54.475,4c-16.48-28.267-29.525-45.269-29.525-45.269
	c 10.795-2.923, 13.653,0.533, 13.653,0.533s 17.557,17.952, 38.688,48.8l0-0.021 C 480.48,91.915, 533.333,130.667, 533.333,130.667s 3.627,3.616, 14.219,20.437
	c0,0-60.224-28.853-130.752-46.667l-0.011,0.011c 22.581,38.784, 44.725,89.6, 51.392,147.061l 0.011-0.011C 545.451,270.507, 586.667,299.552, 586.667,299.552
	s 2.325,4.448,0,16.885c0,0-45.685-17.76-116.437-30.976c0,0.256,0,0.501,0,0.757c0,61.707-16.587,115.104-37.141,157.6L 432.363,443.744z
	 M 200.075,282.997c 1.184,61.984, 16.736,116.309, 35.403,159.691l 0.011,0 C 263.936,439.573, 293.589,437.333, 320,437.333c 31.787,0, 60.213,1.429, 85.003,3.584
	l-0.011,0.011c 19.936-45.387, 36.789-99.829, 36.789-154.261c0-2.016-0.021-4.021-0.064-6.027c-35.68-5.419-76.192-9.237-119.477-9.237
	C 281.813,271.392, 239.104,276.363, 200.075,282.997 M 438.944,245.163c-7.552-55.413-28.501-107.648-48.576-146.72
	c-23.36-4.672-47.147-7.691-69.685-7.691c-23.424,0-47.275,2.56-70.091,6.496l0,0.021c-21.312,41.813-43.712,97.099-49.291,152.597l-0.021,0 
	c 38.603-8.416, 82.592-14.539, 128.928-14.539C 371.072,235.328, 407.403,239.264, 438.944,245.163L 438.944,245.163z"  />
<glyph unicode="&#xe039;" d="M 442.347,276.107C 379.563,144, 320-2.667, 320-2.667c-3.829-9.664-9.419,0.064-9.419,0.064
	s-63.467,147.488-127.467,283.307c-18.667,39.605-33.888,73.707-33.888,120.96c0,92.203, 74.741,166.933, 166.944,166.933c 92.203,0, 166.933-74.741, 166.933-166.933
	C 483.104,354.581, 461.067,315.499, 442.347,276.107z M 389.333,410.667c0,44.181-35.808,80-80,80c-44.181,0-80-35.819-80-80S 265.152,330.667, 309.333,330.667
	C 353.525,330.667, 389.333,366.485, 389.333,410.667z"  />
<glyph unicode="&#xe03a;" d="M 281.707,292.779c-23.883,6.571-43.787,13.376-66.187,22.304c-3.744,1.397-7.723,2.101-11.712,2.336
		c-37.824,2.357-73.163,28.651-73.163,80.267c0,47.413, 31.851,83.083, 81.877,83.083c 51.275,0, 79.392-36.608, 79.392-79.787
		c0-35.915-17.664-61.259-39.808-70.645l0-0.939 c 12.939-3.52, 27.371-6.336, 40.565-8.917L 281.707,292.779z M 251.851,399.563
		c0,28.875-14.443,52.811-40.32,52.811s-40.811-23.936-40.811-53.515c-0.245-30.037, 15.179-53.045, 40.565-53.045
		C 236.917,345.824, 251.851,368.587, 251.851,399.563zM 487.851,324.459c-6.955-3.285-22.645-6.805-43.040-6.805c-57.995,0-87.851,34.027-87.851,79.093
		c0,53.984, 40.811,84.021, 91.584,84.021c 19.669,0, 34.581-3.755, 41.312-7.040L 482.133,445.333c-7.723,3.051-18.411,5.877-31.851,5.877
		c-30.112,0-53.515-17.141-53.515-52.341c0-31.68, 19.915-51.637, 53.76-51.637c 11.445,0, 24.139,2.357, 31.605,5.163L 487.851,324.459zM 186.859,264.853l0-91.061 c0-27.221, 10.955-41.067, 30.379-41.067c 19.893,0, 30.859,13.131, 30.859,41.067L 248.096,264.853 l 37.824,0 l0-88.704 
		c0-48.811-26.133-72.064-69.931-72.064c-42.315,0-67.189,22.059-67.189,72.533L 148.8,264.853 L 186.859,264.853 zM 444.523,264.853L 444.523,106.667 l-38.059,0 L 406.464,264.853 L 444.523,264.853 zM 591.829,68.085c0-29.461-23.861-53.333-53.333-53.333L 96,14.752 c-29.451,0-53.333,23.872-53.333,53.333L 42.667,512.544 c0,29.451, 23.883,53.333, 53.333,53.333l 442.496,0 
	c 29.472,0, 53.333-23.883, 53.333-53.333L 591.829,68.085 z M 524.896,467.339c0,22.709-18.421,41.12-41.12,41.12L 142.613,508.459 c-22.709,0-41.12-18.411-41.12-41.12l0-342.667 
	c0-22.709, 18.411-41.109, 41.12-41.109l 341.152,0 c 22.731,0, 41.12,18.421, 41.12,41.109L 524.885,467.339 z"  />
<glyph unicode="&#xe03b;" d="M 231.381,539.979L 264.683,573.621L 280.075,528.864L 324.672,544.736L 319.115,497.728L 366.187,492.672L 340.789,452.736L 381.003,427.765L 340.789,402.795L 366.187,362.859L 319.115,357.803L 324.672,310.795L 280.075,326.667L 264.683,281.92L 231.381,315.573L 198.091,281.92L 182.699,326.667L 138.101,310.795L 143.659,357.803L 96.587,362.859L 121.995,402.795L 81.781,427.765L 121.995,452.736L 96.587,492.672L 143.659,497.728L 138.101,544.736L 182.699,528.864L 198.091,573.621 zM 596.384-1.781L 32.896-1.781 l 116.448,190.347l 109.995-72.544c 33.856,55.221, 74.080,126.379, 167.061,126.379
	C 599.339,242.4, 596.384-1.781, 596.384-1.781z"  />
<glyph unicode="&#xe03c;" d="M 197.877,541.067L 230.848,573.621L 246.091,530.325L 290.24,545.685L 284.736,500.213L 331.339,495.328L 306.197,456.683L 346.005,432.533L 306.197,408.384L 331.339,369.749L 284.736,364.864L 290.24,319.381L 246.091,334.741L 230.848,291.456L 197.877,324.011L 164.917,291.456L 149.685,334.741L 105.547,319.381L 111.040,364.864L 64.448,369.749L 89.589,408.384L 49.781,432.533L 89.589,456.683L 64.448,495.328L 111.040,500.213L 105.547,545.685L 149.685,530.325L 164.917,573.621 zM 573.803,531.296c 4.864,4.256, 4.864-1.077, 4.864-1.077L 578.667,26.667 c0-2.667-2.891-2.667-2.891-2.667L 60.448,24 
	c0,0-8.448,1.664-1.653,8.725L 573.803,531.296z M 286.784,161.92c 5.717-12.96, 14.005-25.045, 24.864-35.467
	c 44.597-42.869, 115.488-41.461, 158.357,3.136c 42.88,44.608, 41.472,115.499-3.125,158.357c-9.504,9.131-20.203,16.256-31.552,21.376
	c0,0, 42.987-75.531-13.077-133.845C 366.197,117.141, 286.784,161.92, 286.784,161.92z"  />
<glyph unicode="&#xe03d;" d="M 466.208,383.051c0,31.211-39.605,56.277-105.323,64.043c0,0, 10.667-72.427-49.109-72.427c-61.109,0-44.96,73.045-44.96,73.045
	c-63.36-8.416-109.483-34.176-109.483-64.661c0-37.323, 69.141-67.563, 154.443-67.563C 397.077,315.488, 466.208,345.739, 466.208,383.051zM 427.605,6.613c0,0-115.829-86.88-231.659,0l-38.613,319.733c 154.443-104.971, 308.875,0, 308.875,0L 427.605,6.613zM 290.667,407.947c 23.733-23.723, 42.443,0, 42.443,0L 333.109,518.219 L 416,560c 8,25.333-22.667,38.219-22.667,38.219L 290.667,548.448
	L 290.667,407.947 z"  />
<glyph unicode="&#xe03e;" d="M 287.371,319.488L 48.683,319.488 L 48.683,558.176 l 238.688,0 L 287.371,319.488 z M 241.781,504.843l-144,0 l0-133.333 l 144,0 L 241.781,504.843 zM 347.349,558.176L 586.037,558.176L 586.037,319.488L 347.349,319.488zM 48.683,259.509L 287.371,259.509L 287.371,20.811L 48.683,20.811zM 540.448,72.832l-144,0 L 396.448,206.176 l 144,0 L 540.448,72.832 z M 586.037,259.509L 347.349,259.509 l0-238.699 l 238.688,0 L 586.037,259.509 z"  />
<glyph unicode="&#xf0005;" d="M 599.221,31.115c0-10.517-6.88-25.664-23.221-25.664L 72,5.451 c-12.149,0-26.197,0-26.197,25.664L 45.803,537.12 
	c0,10.507,0,29.707, 32.661,29.707l 48.203,0 L 126.667,522.667 l 93.333,0 l 10.667,44.16l 182.677,0 L 426.677,522.667l 91.989,0 L 518.667,566.827 l 47.893,0 c 12.149,0, 32.661-8.533, 32.661-19.040L 599.221,31.115 z
	 M 88.789,427.445l0-343.893 c0-15.445, 9.312-24.768, 24.981-24.768l 415.115,0 c 15.445,0, 26.005,7.541, 26.005,24.768l0,343.893 L 88.789,427.445 zM 181.333,296L 469.333,296L 469.333,194.667L 181.333,194.667z"  />
</font>
</defs>
</svg>
